<svg width="490" height="442" viewBox="0 0 490 442" fill="none" xmlns="http://www.w3.org/2000/svg">
<path d="M454.859 269.109C457.692 256.3 459.349 243.259 459.808 230.15C469.975 230.085 480.112 231.244 490 233.602C481.467 222.922 471.174 213.767 459.561 206.527C456.328 156.614 436.179 109.274 402.415 72.2631C368.65 35.2519 323.271 10.7635 273.712 2.80945C224.153 -5.14458 173.352 3.9074 129.631 28.4825C85.9097 53.0575 51.8612 91.6986 33.0626 138.076C64.942 113.958 99.3623 93.3699 135.715 76.6769C129.033 85.0113 126.559 95.9597 131.261 110.409C143.238 147.298 192.783 126.388 192.783 126.388C192.783 126.388 162.145 125.204 162.195 99.3132C162.195 64.052 200.554 54.3859 221.589 51.7722C227.163 51.1928 232.764 50.913 238.368 50.9339C277.167 50.9842 314.793 64.1989 345.048 88.4018C375.304 112.605 396.384 146.353 404.819 184.088C365.718 175.458 312.264 177.332 242.525 207.563C96.8616 270.638 0 190.401 0 190.401C0 190.401 109.483 334.552 254.107 276.852C319.836 250.616 370.915 238.533 408.432 233.454C407.925 240.761 406.933 248.026 405.463 255.202C384.977 256.017 364.828 260.668 346.069 268.912C237.873 313.297 213.125 302.99 213.125 302.99C213.125 302.99 263.363 339.04 356.215 300.376C368.913 295.002 382.021 290.648 395.415 287.356C382.324 318.048 360.467 344.229 332.563 362.642C304.658 381.056 271.936 390.89 238.467 390.921H235.348C193.872 392.252 151.207 378.838 111.166 359.457C121.065 359.211 130.073 354.525 136.458 341.999C151.306 313.1 109.532 296.283 109.532 296.283C109.532 296.283 127.004 315.023 111.611 330.311C97.8515 343.873 80.9737 341.407 67.0656 334.996C59.1959 330.064 51.5737 325.133 44.199 320.201C41.2788 317.686 39.596 316.009 39.596 316.009L42.3677 318.919L38.606 316.305C57.8612 356.507 88.8701 389.965 127.56 412.285C166.249 434.604 210.809 444.741 255.387 441.365C299.964 437.988 342.474 421.255 377.333 393.364C412.191 365.473 437.767 327.728 450.701 285.088C472.677 290.02 480.695 301.954 480.695 301.954C475.49 288.725 466.507 277.306 454.859 269.109ZM230.399 189.562C334.041 141.824 380.567 165.644 380.567 165.644C380.567 165.644 332.161 103.406 217.58 155.78C116.016 202.335 81.6667 161.057 81.6667 161.057C81.6667 161.057 113.69 243.366 230.399 189.562Z" fill="url(#paint0_radial_22_400165)"/>
<defs>
<radialGradient id="paint0_radial_22_400165" cx="0" cy="0" r="1" gradientUnits="userSpaceOnUse" gradientTransform="translate(250.543 350.383) scale(225.796 224.981)">
<stop stop-color="white"/>
<stop offset="1" stop-color="#87B8DF"/>
</radialGradient>
</defs>
</svg>
