<svg width="14" height="14" viewBox="0 0 14 14" fill="none" xmlns="http://www.w3.org/2000/svg">
<path d="M7.00007 4.66675V7.00008L8.01036 7.58341M1.16666 7.00008C1.16666 10.2217 3.77834 12.8334 7 12.8334C10.2217 12.8334 12.8333 10.2217 12.8333 7.00008C12.8333 3.77842 10.2217 1.16675 7 1.16675M1.75 1.75008H4.0813C4.08145 1.75008 4.0816 1.75013 4.08173 1.75021V1.75021C4.08194 1.75035 4.08207 1.7506 4.08207 1.75086L4.08206 1.75096C4.08206 1.75121 4.08196 1.75145 4.08178 1.75163L1.75143 4.08198C1.75133 4.08209 1.75125 4.08222 1.75122 4.08237V4.08237C1.75117 4.08263 1.75125 4.08289 1.75144 4.08307L1.75152 4.08314C1.7517 4.08332 1.75194 4.08341 1.75219 4.08341H4.08333" stroke="#666A7B" stroke-width="1.2" stroke-linecap="round"/>
</svg>
