<svg width="786" height="196" viewBox="0 0 786 196" fill="none" xmlns="http://www.w3.org/2000/svg">
<path opacity="0.7" d="M737.985 176.151C742.583 155.342 745.271 134.158 746.015 112.863C762.51 112.759 778.957 114.641 795 118.471C781.156 101.123 764.456 86.2506 745.614 74.4895C740.369 -6.59092 707.679 -83.491 652.897 -143.613C598.115 -203.736 524.49 -243.515 444.083 -256.436C363.676 -269.357 281.254 -254.653 210.319 -214.732C139.384 -174.811 84.1421 -112.042 53.6424 -36.7049C105.365 -75.8834 161.21 -109.327 220.191 -136.443C209.35 -122.905 205.335 -105.12 212.964 -81.6472C232.397 -21.724 312.78 -55.6912 312.78 -55.6912C312.78 -55.6912 263.073 -57.6138 263.153 -99.6722C263.153 -156.952 325.388 -172.654 359.517 -176.9C368.56 -177.841 377.647 -178.295 386.739 -178.261C449.69 -178.18 510.736 -156.713 559.823 -117.397C608.911 -78.0808 643.114 -23.2593 656.798 38.039C593.359 24.0196 506.632 27.0636 393.485 76.1718C157.153 178.634 0 48.2933 0 48.2933C0 48.2933 177.63 282.458 412.276 188.728C518.918 146.109 601.791 126.482 662.661 118.23C661.838 130.1 660.228 141.902 657.842 153.559C624.605 154.884 591.914 162.439 561.479 175.83C385.936 247.93 345.785 231.187 345.785 231.187C345.785 231.187 427.292 289.748 577.941 226.941C598.542 218.212 619.81 211.139 641.541 205.792C620.302 255.649 584.84 298.177 539.566 328.089C494.292 358 441.202 373.974 386.9 374.025H381.841C314.547 376.188 245.326 354.398 180.361 322.915C196.421 322.514 211.036 314.903 221.395 294.555C245.486 247.61 177.711 220.292 177.711 220.292C177.711 220.292 206.058 250.734 181.083 275.569C158.759 297.599 131.376 293.594 108.811 283.179C96.0424 275.168 83.6758 267.157 71.7106 259.146C66.9727 255.06 64.2424 252.337 64.2424 252.337L68.7394 257.063L62.6363 252.817C93.8768 318.122 144.187 372.472 206.959 408.729C269.73 444.986 342.027 461.453 414.352 455.968C486.677 450.482 555.647 423.301 612.203 377.993C668.759 332.686 710.254 271.372 731.239 202.107C766.894 210.118 779.903 229.505 779.903 229.505C771.458 208.015 756.884 189.466 737.985 176.151ZM373.811 46.9313C541.965 -30.6164 617.45 8.07726 617.45 8.07726C617.45 8.07726 538.914 -93.0231 353.012 -7.94498C188.23 67.68 132.5 0.626978 132.5 0.626978C132.5 0.626978 184.456 134.333 373.811 46.9313Z" fill="white"/>
</svg>
