<svg width="161" height="230" viewBox="0 0 161 230" fill="none" xmlns="http://www.w3.org/2000/svg">
<path opacity="0.7" d="M237.64 140.034C239.121 133.369 239.987 126.583 240.226 119.761C245.538 119.728 250.834 120.331 256 121.557C251.542 116 246.164 111.236 240.097 107.469C238.408 81.4959 227.881 56.8622 210.241 37.603C192.601 18.3437 168.893 5.60091 143 1.46193C117.108 -2.67705 90.5673 2.03326 67.7254 14.8212C44.8835 27.6091 27.0948 47.7165 17.2735 71.8494C33.9289 59.2992 51.9118 48.5861 70.9042 39.8997C67.4133 44.2367 66.1204 49.9338 68.577 57.4529C74.8347 76.6483 100.719 65.7674 100.719 65.7674C100.719 65.7674 84.7127 65.1516 84.7386 51.6788C84.7386 33.3302 104.779 28.3004 115.769 26.9403C118.681 26.6388 121.607 26.4932 124.535 26.504C144.806 26.5302 164.463 33.4067 180.27 46.001C196.077 58.5953 207.091 76.1565 211.497 95.7925C191.069 91.3015 163.142 92.2767 126.707 108.008C50.6053 140.83 0 99.0772 0 99.0772C0 99.0772 57.1992 174.088 132.758 144.063C167.098 130.411 193.784 124.124 213.385 121.48C213.12 125.283 212.602 129.063 211.834 132.798C201.131 133.222 190.604 135.642 180.803 139.932C124.276 163.028 111.347 157.664 111.347 157.664C111.347 157.664 137.594 176.424 186.104 156.304C192.738 153.508 199.587 151.242 206.584 149.529C199.745 165.5 188.326 179.124 173.747 188.705C159.168 198.287 142.073 203.404 124.587 203.42H122.958C101.288 204.113 78.998 197.133 58.0784 187.048C63.2501 186.92 67.9564 184.482 71.2921 177.963C79.0497 162.925 57.225 154.174 57.225 154.174C57.225 154.174 66.3531 163.926 58.3111 171.881C51.1224 178.939 42.3046 177.655 35.0384 174.319C30.9269 171.753 26.9446 169.187 23.0917 166.621C21.5661 165.312 20.6869 164.439 20.6869 164.439L22.1349 165.953L20.1697 164.593C30.2295 185.513 46.4301 202.923 66.6433 214.537C86.8566 226.152 110.137 231.427 133.427 229.669C156.716 227.912 178.925 219.205 197.137 204.692C215.349 190.178 228.711 170.537 235.468 148.349C246.949 150.915 251.139 157.126 251.139 157.126C248.419 150.242 243.726 144.3 237.64 140.034ZM120.372 98.6409C174.52 73.7998 198.827 86.1947 198.827 86.1947C198.827 86.1947 173.537 53.8088 113.674 81.0622C60.6125 105.287 42.6667 83.8081 42.6667 83.8081C42.6667 83.8081 59.3972 126.639 120.372 98.6409Z" fill="white"/>
</svg>
