<svg width="279" height="229" viewBox="0 0 279 229" fill="none" xmlns="http://www.w3.org/2000/svg">
<path opacity="0.7" d="M329.54 149.939C331.594 140.636 332.794 131.166 333.126 121.645C340.492 121.598 347.836 122.44 355 124.152C348.818 116.396 341.361 109.747 332.947 104.489C330.605 68.24 316.008 33.8599 291.545 6.98067C267.083 -19.8985 234.206 -37.6831 198.301 -43.4597C162.396 -49.2362 125.591 -42.6623 93.9161 -24.8148C62.2407 -6.96725 37.5729 21.0956 23.9535 54.7768C47.0498 37.261 71.987 22.3093 98.3242 10.1861C93.4833 16.239 91.6904 24.1902 95.097 34.6842C103.775 61.4744 139.669 46.2885 139.669 46.2885C139.669 46.2885 117.473 45.4289 117.509 26.6257C117.509 1.01741 145.299 -6.00253 160.539 -7.90076C164.577 -8.3215 168.635 -8.52469 172.695 -8.50957C200.805 -8.47301 228.064 1.12407 249.984 18.7013C271.904 36.2786 287.177 60.788 293.287 88.1929C264.959 81.9252 226.232 83.2861 175.707 105.241C70.1753 151.049 0 92.7774 0 92.7774C0 92.7774 79.3192 197.467 184.098 155.562C231.718 136.508 268.724 127.733 295.905 124.044C295.538 129.351 294.819 134.627 293.754 139.839C278.912 140.431 264.314 143.809 250.723 149.796C172.336 182.03 154.407 174.545 154.407 174.545C154.407 174.545 190.804 200.726 258.074 172.646C267.273 168.744 276.77 165.582 286.474 163.191C276.99 185.481 261.155 204.494 240.938 217.867C220.721 231.24 197.015 238.381 172.767 238.404H170.508C140.458 239.371 109.548 229.629 80.5384 215.554C87.7101 215.375 94.2364 211.972 98.8621 202.875C109.62 181.887 79.355 169.674 79.355 169.674C79.355 169.674 92.0131 183.284 80.8611 194.387C70.8924 204.236 58.6646 202.445 48.5884 197.789C42.8869 194.207 37.3646 190.626 32.0217 187.044C29.9061 185.218 28.6869 184 28.6869 184L30.6949 186.113L27.9697 184.215C41.9198 213.411 64.3855 237.71 92.4156 253.919C120.446 270.129 152.729 277.491 185.025 275.038C217.321 272.586 248.119 260.434 273.374 240.178C298.628 219.922 317.158 192.511 326.528 161.544C342.449 165.125 348.259 173.793 348.259 173.793C344.487 164.185 337.98 155.892 329.54 149.939ZM166.922 92.1684C242.01 57.4988 275.717 74.7978 275.717 74.7978C275.717 74.7978 240.647 29.5983 157.634 67.6346C84.0525 101.445 59.1667 71.4669 59.1667 71.4669C59.1667 71.4669 82.3672 131.243 166.922 92.1684Z" fill="white"/>
</svg>
