<svg width="19" height="17" viewBox="0 0 19 17" fill="none" xmlns="http://www.w3.org/2000/svg">
<path d="M5.47615 16C6.00214 16 6.42853 15.5803 6.42853 15.0625C6.42853 14.5447 6.00214 14.125 5.47615 14.125C4.95016 14.125 4.52377 14.5447 4.52377 15.0625C4.52377 15.5803 4.95016 16 5.47615 16Z" fill="#151B30"/>
<path d="M15.9523 16C16.4783 16 16.9047 15.5803 16.9047 15.0625C16.9047 14.5447 16.4783 14.125 15.9523 14.125C15.4264 14.125 15 14.5447 15 15.0625C15 15.5803 15.4264 16 15.9523 16Z" fill="#151B30"/>
<path d="M1.66663 1H2.24407C3.21609 1 4.03218 1.72047 4.1376 2.67166M4.1376 2.67166L4.90994 9.64084C5.01535 10.592 5.83144 11.3125 6.80347 11.3125H15.0438C15.9145 11.3125 16.6743 10.7313 16.8895 9.90083L18.2331 3.00377V3.00377C18.285 2.73727 18.081 2.48958 17.8094 2.48958H17.8014H4.29561M4.1376 2.67166V2.67166C4.12713 2.57722 4.19774 2.48958 4.29276 2.48958H4.29561M4.1376 2.67166C4.16666 2.725 4.19901 2.48958 4.29561 2.48958M5.11877 14.7109H5.83306M5.11877 15.414H5.83306M15.595 14.7109H16.3093M15.595 15.414H16.3093M6.42853 15.0625C6.42853 15.5803 6.00214 16 5.47615 16C4.95016 16 4.52377 15.5803 4.52377 15.0625C4.52377 14.5447 4.95016 14.125 5.47615 14.125C6.00214 14.125 6.42853 14.5447 6.42853 15.0625ZM16.9047 15.0625C16.9047 15.5803 16.4783 16 15.9523 16C15.4264 16 15 15.5803 15 15.0625C15 14.5447 15.4264 14.125 15.9523 14.125C16.4783 14.125 16.9047 14.5447 16.9047 15.0625Z" stroke="white" stroke-width="1.5" stroke-linecap="round" stroke-linejoin="round"/>
</svg>
