<svg width="145" height="120" viewBox="0 0 145 120" fill="none" xmlns="http://www.w3.org/2000/svg">
<path fill-rule="evenodd" clip-rule="evenodd" d="M31.1432 19.9245H31.1225C30.4336 19.9245 29.9217 20.5598 29.9976 21.2445C30.087 21.4087 30.1807 21.1957 30.3125 20.8961C30.4913 20.4899 30.7401 19.9245 31.1432 19.9245Z" fill="#151B30"/>
<path d="M12.083 9.125H16.2695C23.3166 9.125 29.2333 14.3484 29.9976 21.2445M29.9976 21.2445L35.597 71.7711C36.3613 78.6672 42.2779 83.8906 49.3251 83.8906H109.067C115.38 83.8906 120.889 79.6771 122.449 73.656L132.19 23.6523L132.783 20.6067M29.9976 21.2445V21.2445C29.9217 20.5598 30.4336 19.9245 31.1225 19.9245V19.9245M29.9976 21.2445C29.9217 20.5598 30.4336 19.9245 31.1225 19.9245M29.9976 21.2445C30.087 21.4087 30.1807 21.1957 30.3125 20.8961M31.1432 19.9245H129.06H132.221M31.1432 19.9245H31.1225M31.1432 19.9245C30.7401 19.9245 30.4913 20.4899 30.3125 20.8961M31.1432 19.9245C31.1362 19.9245 31.1293 19.9241 31.1225 19.9245M31.1225 19.9245C30.7315 19.9434 30.4882 20.4969 30.3125 20.8961M132.221 19.9245C132.582 19.9245 132.852 20.2531 132.783 20.6067M132.221 19.9245V19.9245C132.582 19.9245 132.852 20.2531 132.783 20.6067V20.6067" stroke="#151B30" stroke-width="3" stroke-linecap="round" stroke-linejoin="round"/>
<path fill-rule="evenodd" clip-rule="evenodd" d="M66.428 46.3639C66.9726 45.8547 67.8269 45.8834 68.3361 46.428C69.0947 47.2393 70.1037 47.6768 71.1341 47.6768C72.1647 47.6768 73.1731 47.2397 73.9317 46.4285C74.4409 45.8839 75.2952 45.8553 75.8398 46.3645C76.3844 46.8738 76.413 47.7281 75.9038 48.2727C74.6551 49.6079 72.9417 50.3768 71.1341 50.3768C69.3263 50.3768 67.6123 49.6072 66.3639 48.272C65.8547 47.7274 65.8834 46.8731 66.428 46.3639ZM83.2462 46.3639C83.7908 45.8547 84.6451 45.8834 85.1543 46.428C85.9129 47.2393 86.9219 47.6768 87.9523 47.6768C88.9829 47.6768 89.9913 47.2397 90.7498 46.4285C91.2591 45.8839 92.1134 45.8553 92.658 46.3645C93.2025 46.8738 93.2312 47.7281 92.722 48.2727C91.4733 49.6079 89.7598 50.3768 87.9523 50.3768C86.1445 50.3768 84.4305 49.6072 83.1821 48.272C82.6729 47.7274 82.7016 46.8731 83.2462 46.3639ZM79.5432 57.0838C77.8999 57.0838 76.2912 57.8076 75.0814 59.1514C74.5829 59.7058 73.729 59.7514 73.1746 59.2528C72.6202 58.7543 72.5749 57.9008 73.0734 57.3463L73.0743 57.3454C74.7633 55.4695 77.0869 54.3838 79.5432 54.3838C81.9994 54.3838 84.3225 55.4688 86.0115 57.3447L86.0129 57.3463C86.5115 57.9008 86.4662 58.7543 85.9118 59.2528C85.3573 59.7514 84.5038 59.7061 84.0052 59.1516C82.7954 57.8079 81.1865 57.0838 79.5432 57.0838Z" fill="#151B30"/>
<path d="M109 110C111.761 110 114 107.761 114 105C114 102.239 111.761 100 109 100C106.239 100 104 102.239 104 105C104 107.761 106.239 110 109 110Z" fill="#151B30"/>
<path d="M107.124 103.125H110.874M107.124 106.875H110.874M114 105C114 107.761 111.761 110 109 110C106.239 110 104 107.761 104 105C104 102.239 106.239 100 109 100C111.761 100 114 102.239 114 105Z" stroke="#151B30" stroke-width="3" stroke-linecap="round" stroke-linejoin="round"/>
<path d="M49 110C51.7614 110 54 107.761 54 105C54 102.239 51.7614 100 49 100C46.2386 100 44 102.239 44 105C44 107.761 46.2386 110 49 110Z" fill="#151B30"/>
<path d="M47.1238 103.125H50.8738M47.1238 106.875H50.8738M54 105C54 107.761 51.7614 110 49 110C46.2386 110 44 107.761 44 105C44 102.239 46.2386 100 49 100C51.7614 100 54 102.239 54 105Z" stroke="#151B30" stroke-width="3" stroke-linecap="round" stroke-linejoin="round"/>
</svg>
