<svg width="20" height="20" viewBox="0 0 20 20" fill="none" xmlns="http://www.w3.org/2000/svg">
<path d="M5.47621 17.5C6.0022 17.5 6.42859 17.0803 6.42859 16.5625C6.42859 16.0447 6.0022 15.625 5.47621 15.625C4.95023 15.625 4.52383 16.0447 4.52383 16.5625C4.52383 17.0803 4.95023 17.5 5.47621 17.5Z" fill="#151B30"/>
<path d="M15.9524 17.5C16.4784 17.5 16.9048 17.0803 16.9048 16.5625C16.9048 16.0447 16.4784 15.625 15.9524 15.625C15.4264 15.625 15 16.0447 15 16.5625C15 17.0803 15.4264 17.5 15.9524 17.5Z" fill="#151B30"/>
<path d="M1.66669 2.5H2.24413C3.21615 2.5 4.03225 3.22047 4.13766 4.17166M4.13766 4.17166L4.91 11.1408C5.01541 12.092 5.83151 12.8125 6.80353 12.8125H15.0439C15.9145 12.8125 16.6744 12.2313 16.8895 11.4008L18.2332 4.50377V4.50377C18.2851 4.23727 18.081 3.98958 17.8095 3.98958H17.8015H4.29568M4.13766 4.17166V4.17166C4.12719 4.07722 4.1978 3.98958 4.29282 3.98958H4.29568M4.13766 4.17166C4.16672 4.225 4.19907 3.98958 4.29568 3.98958M5.11884 16.2109H5.83312M5.11884 16.914H5.83312M15.595 16.2109H16.3093M15.595 16.914H16.3093M6.42859 16.5625C6.42859 17.0803 6.0022 17.5 5.47621 17.5C4.95023 17.5 4.52383 17.0803 4.52383 16.5625C4.52383 16.0447 4.95023 15.625 5.47621 15.625C6.0022 15.625 6.42859 16.0447 6.42859 16.5625ZM16.9048 16.5625C16.9048 17.0803 16.4784 17.5 15.9524 17.5C15.4264 17.5 15 17.0803 15 16.5625C15 16.0447 15.4264 15.625 15.9524 15.625C16.4784 15.625 16.9048 16.0447 16.9048 16.5625Z" stroke="#151B30" stroke-width="1.5" stroke-linecap="round" stroke-linejoin="round"/>
</svg>
