<svg width="102" height="86" viewBox="0 0 102 86" fill="none" xmlns="http://www.w3.org/2000/svg">
<path d="M12.558 8.02332C24.8328 -1.81791 41.1696 1.07306 50.9664 11.8203C60.7633 1.07306 76.8891 -1.71439 89.3749 8.02332C101.861 17.761 103.378 34.3186 93.7383 45.9579C85.7238 55.6351 61.469 76.0452 53.5196 82.6511L53.5196 82.6512C52.6302 83.3902 52.1855 83.7598 51.6668 83.905C51.2141 84.0317 50.7188 84.0317 50.266 83.905C49.7473 83.7598 49.3027 83.3902 48.4133 82.6511C40.4639 76.0452 16.2091 55.6351 8.19457 45.9579C-1.44486 34.3186 0.283256 17.8645 12.558 8.02332Z" stroke="#151B30" stroke-width="3" stroke-linecap="round" stroke-linejoin="round"/>
</svg>
