<svg width="24" height="24" viewBox="0 0 24 24" fill="none" xmlns="http://www.w3.org/2000/svg">
<path fill-rule="evenodd" clip-rule="evenodd" d="M7.496 3H16.505C18.987 3 21 5.012 21 7.496V16.505C21 18.987 18.988 21 16.504 21H7.496C5.013 21 3 18.988 3 16.504V7.496C3 5.013 5.012 3 7.496 3V3Z" stroke="white" stroke-width="1.5" stroke-linecap="round" stroke-linejoin="round"/>
<path d="M16.949 6.71328C16.763 6.71428 16.612 6.86528 16.612 7.05128C16.612 7.23728 16.764 7.38828 16.95 7.38828C17.136 7.38828 17.287 7.23728 17.287 7.05128C17.288 6.86428 17.136 6.71328 16.949 6.71328" stroke="white" stroke-width="1.5" stroke-linecap="round" stroke-linejoin="round"/>
<path d="M14.5456 9.45481C15.9515 10.8607 15.9515 13.1401 14.5456 14.546C13.1397 15.9519 10.8603 15.9519 9.45444 14.546C8.04855 13.1401 8.04855 10.8607 9.45444 9.45481C10.8603 8.04892 13.1397 8.04892 14.5456 9.45481" stroke="white" stroke-width="1.5" stroke-linecap="round" stroke-linejoin="round"/>
</svg>
