<svg width="16" height="14" viewBox="0 0 16 14" fill="none" xmlns="http://www.w3.org/2000/svg">
<path fill-rule="evenodd" clip-rule="evenodd" d="M8 1V1C11.314 1 14 3.686 14 7V7C14 10.314 11.314 13 8 13V13C4.686 13 2 10.314 2 7V7C2 3.686 4.686 1 8 1Z" stroke="#FB3C52" stroke-linecap="round" stroke-linejoin="round"/>
<path d="M8.00033 7.33333V4" stroke="#FB3C52" stroke-linecap="round" stroke-linejoin="round"/>
<path d="M7.99966 9.66667C7.90766 9.66667 7.83299 9.74133 7.83366 9.83333C7.83366 9.92533 7.90833 10 8.00033 10C8.09233 10 8.16699 9.92533 8.16699 9.83333C8.16699 9.74133 8.09233 9.66667 7.99966 9.66667" stroke="#FB3C52" stroke-linecap="round" stroke-linejoin="round"/>
</svg>
