<svg width="66" height="66" viewBox="0 0 66 66" fill="none" xmlns="http://www.w3.org/2000/svg">
<g clip-path="url(#clip0_65_275063)">
<path d="M8.25 33C8.25 36.2502 8.89018 39.4686 10.134 42.4714C11.3778 45.4742 13.2009 48.2026 15.4991 50.5009C17.7974 52.7991 20.5258 54.6222 23.5286 55.866C26.5314 57.1098 29.7498 57.75 33 57.75C36.2502 57.75 39.4686 57.1098 42.4714 55.866C45.4742 54.6222 48.2026 52.7991 50.5009 50.5009C52.7991 48.2026 54.6222 45.4742 55.866 42.4714C57.1098 39.4686 57.75 36.2502 57.75 33C57.75 26.4359 55.1424 20.1406 50.5009 15.4991C45.8594 10.8576 39.5641 8.25 33 8.25C26.4359 8.25 20.1406 10.8576 15.4991 15.4991C10.8576 20.1406 8.25 26.4359 8.25 33Z" stroke="#22A9FF" stroke-width="1.5" stroke-linecap="round" stroke-linejoin="round"/>
<path d="M33 24.75H33.0271" stroke="#22A9FF" stroke-width="1.5" stroke-linecap="round" stroke-linejoin="round"/>
<path d="M30.25 33H33V44H35.75" stroke="#22A9FF" stroke-width="1.5" stroke-linecap="round" stroke-linejoin="round"/>
</g>
<defs>
<clipPath id="clip0_65_275063">
<rect width="66" height="66" fill="white"/>
</clipPath>
</defs>
</svg>
