<svg width="18" height="18" viewBox="0 0 18 18" fill="none" xmlns="http://www.w3.org/2000/svg">
<path fill-rule="evenodd" clip-rule="evenodd" d="M5.622 2.25H12.3788C14.2403 2.25 15.75 3.759 15.75 5.622V12.3788C15.75 14.2403 14.241 15.75 12.378 15.75H5.622C3.75975 15.75 2.25 14.241 2.25 12.378V5.622C2.25 3.75975 3.759 2.25 5.622 2.25V2.25Z" stroke="#151B30" stroke-width="1.2" stroke-linecap="round" stroke-linejoin="round"/>
<path d="M12.7115 5.03478C12.572 5.03553 12.4588 5.14878 12.4588 5.28828C12.4588 5.42778 12.5728 5.54103 12.7123 5.54103C12.8518 5.54103 12.965 5.42778 12.965 5.28828C12.9658 5.14803 12.8518 5.03478 12.7115 5.03478" stroke="#151B30" stroke-width="1.2" stroke-linecap="round" stroke-linejoin="round"/>
<path d="M10.909 7.0908C11.9634 8.14522 11.9634 9.85476 10.909 10.9092C9.85458 11.9636 8.14504 11.9636 7.09062 10.9092C6.0362 9.85476 6.0362 8.14522 7.09062 7.0908C8.14504 6.03638 9.85458 6.03638 10.909 7.0908" stroke="#151B30" stroke-width="1.2" stroke-linecap="round" stroke-linejoin="round"/>
</svg>
