<svg width="120" height="20" viewBox="0 0 120 20" fill="none" xmlns="http://www.w3.org/2000/svg">
<g opacity="0.6">
<path d="M32.8197 12.324C32.8197 12.8973 32.6521 13.3631 32.3169 13.7215C31.9816 14.0798 31.4962 14.3091 30.8606 14.4095L32.7778 16.6453V16.9356H30.6825L28.6395 14.4632H27.5605V16.9356H25.7061V9.88389H30.1168C30.9549 9.88389 31.6149 10.0917 32.0969 10.5073C32.5788 10.923 32.8197 11.4927 32.8197 12.2165V12.324ZM30.934 12.2058C30.934 11.7615 30.6476 11.5393 30.0748 11.5393H27.5605V12.9905H30.0748C30.3543 12.9905 30.5673 12.9331 30.714 12.8185C30.8606 12.7038 30.934 12.5355 30.934 12.3133V12.2058ZM40.3909 9.88389V11.5286H36.0011V12.5928H40.1813V14.216H36.0011V15.2909H40.3909V16.9356H34.1467V9.88389H40.3909ZM48.9781 16.6453V16.9356H47.1448L46.6104 15.6349H43.4046L42.8703 16.9356H41.0368V16.6453L43.9808 9.88389H46.0342L48.9781 16.6453ZM45.9609 14.0332L45.0075 11.7006L44.0541 14.0332H45.9609ZM53.3001 9.88389C54.6132 9.88389 55.6015 10.1777 56.265 10.7653C56.9355 11.3458 57.2708 12.213 57.2708 13.3667V13.4635C57.2708 15.7782 55.9472 16.9356 53.3001 16.9356H49.7799V9.88389H53.3001ZM53.3001 15.2371C54.0265 15.2371 54.5538 15.0974 54.8821 14.8179C55.2173 14.5385 55.385 14.0977 55.385 13.4957V13.3452C55.385 12.7504 55.2139 12.3097 54.8717 12.023C54.5294 11.7292 54.0021 11.5823 53.2897 11.5823H51.6343V15.2371H53.3001ZM64.9922 9.88389V10.1741L62.0689 14.1945V16.9356H60.2146V14.1945L57.2812 10.1741V9.88389H59.2508L61.1473 12.5498L63.0332 9.88389H64.9922ZM69.2184 17.0753C68.3735 17.0753 67.6297 16.9284 66.9871 16.6346C66.3512 16.3336 65.859 15.9108 65.5099 15.3661C65.1676 14.8215 64.9964 14.1837 64.9964 13.4527V13.3775C64.9964 12.6465 65.1676 12.0087 65.5099 11.4641C65.859 10.9123 66.3512 10.4895 66.9871 10.1956C67.6297 9.89464 68.3735 9.74414 69.2184 9.74414C70.0078 9.74414 70.7168 9.8767 71.3449 10.1419C71.9735 10.407 72.4626 10.7725 72.8117 11.2383C73.168 11.7041 73.3465 12.2308 73.3465 12.8185V12.9045H71.4496V12.8185C71.4496 12.4243 71.2437 12.109 70.832 11.8725C70.4269 11.6361 69.889 11.5178 69.2184 11.5178C67.6608 11.5178 66.8823 12.1305 66.8823 13.356V13.485C66.8823 14.0941 67.0742 14.5492 67.4586 14.8501C67.8423 15.1511 68.4289 15.3016 69.2184 15.3016C69.9097 15.3016 70.4549 15.187 70.8527 14.9576C71.251 14.7283 71.4496 14.413 71.4496 14.0117V13.9365H73.3465V14.0117C73.3465 14.5993 73.168 15.1261 72.8117 15.5919C72.4626 16.0577 71.9735 16.4231 71.3449 16.6883C70.7168 16.9463 70.0078 17.0753 69.2184 17.0753ZM78.3231 17.0753C77.4917 17.0753 76.7583 16.9284 76.1229 16.6346C75.4943 16.3336 75.0088 15.9108 74.6665 15.3661C74.3241 14.8143 74.153 14.1765 74.153 13.4527V13.3775C74.153 12.6465 74.3241 12.0087 74.6665 11.4641C75.0088 10.9123 75.4943 10.4895 76.1229 10.1956C76.7583 9.89464 77.4917 9.74414 78.3231 9.74414C79.168 9.74414 79.9051 9.89464 80.5337 10.1956C81.1623 10.4895 81.6472 10.9123 81.9895 11.4641C82.3319 12.0087 82.503 12.6465 82.503 13.3775V13.4527C82.503 14.1837 82.3319 14.8215 81.9895 15.3661C81.6472 15.9108 81.1623 16.3336 80.5337 16.6346C79.9051 16.9284 79.168 17.0753 78.3231 17.0753ZM78.3231 15.3016C79.8527 15.3016 80.6171 14.6961 80.6171 13.485V13.356C80.6171 12.754 80.4216 12.299 80.0305 11.9908C79.6462 11.6755 79.0772 11.5178 78.3231 11.5178C77.5824 11.5178 77.0165 11.6755 76.6255 11.9908C76.2344 12.3061 76.0389 12.7611 76.0389 13.356V13.485C76.0389 14.0798 76.2307 14.5313 76.6151 14.8394C76.9995 15.1476 77.5684 15.3016 78.3231 15.3016ZM87.1855 9.88389C88.4988 9.88389 89.4868 10.1777 90.1507 10.7653C90.8208 11.3458 91.1564 12.213 91.1564 13.3667V13.4635C91.1564 15.7782 89.8328 16.9356 87.1855 16.9356H83.6653V9.88389H87.1855ZM87.1855 15.2371C87.9122 15.2371 88.4397 15.0974 88.7674 14.8179C89.103 14.5385 89.2705 14.0977 89.2705 13.4957V13.3452C89.2705 12.7504 89.0994 12.3097 88.757 12.023C88.4147 11.7292 87.8878 11.5823 87.1751 11.5823H85.5201V15.2371H87.1855ZM98.5654 9.88389V11.5286H94.1753V12.5928H98.3558V14.216H94.1753V15.2909H98.5654V16.9356H92.3211V9.88389H98.5654ZM100.898 17.0753C100.591 17.0753 100.339 16.9786 100.144 16.7851C99.9481 16.5844 99.85 16.33 99.85 16.0218C99.85 15.7137 99.9481 15.4665 100.144 15.2801C100.339 15.0866 100.591 14.9899 100.898 14.9899C101.212 14.9899 101.464 15.0866 101.652 15.2801C101.848 15.4665 101.945 15.7137 101.945 16.0218C101.945 16.3372 101.848 16.5916 101.652 16.7851C101.464 16.9786 101.212 17.0753 100.898 17.0753ZM110.505 12.324C110.505 12.8973 110.337 13.3631 110.002 13.7215C109.667 14.0798 109.181 14.3091 108.545 14.4095L110.463 16.6453V16.9356H108.368L106.325 14.4632H105.246V16.9356H103.391V9.88389H107.802C108.64 9.88389 109.3 10.0917 109.782 10.5073C110.264 10.923 110.505 11.4927 110.505 12.2165V12.324ZM108.619 12.2058C108.619 11.7615 108.333 11.5393 107.76 11.5393H105.246V12.9905H107.76C108.039 12.9905 108.252 12.9331 108.399 12.8185C108.545 12.7038 108.619 12.5355 108.619 12.3133V12.2058ZM115.237 17.0753C114.531 17.0753 113.913 16.9356 113.383 16.6561C112.851 16.3695 112.443 15.9645 112.156 15.4414C111.87 14.9183 111.727 14.3127 111.727 13.6247V9.88389H113.581V13.657C113.581 14.1945 113.721 14.6029 114 14.8824C114.28 15.1619 114.692 15.3016 115.237 15.3016C115.789 15.3016 116.204 15.1619 116.484 14.8824C116.763 14.6029 116.903 14.1945 116.903 13.657V9.88389H118.757V13.6247C118.757 14.3198 118.61 14.929 118.317 15.4521C118.03 15.9681 117.622 16.3695 117.091 16.6561C116.56 16.9356 115.942 17.0753 115.237 17.0753Z" fill="white"/>
<path d="M28.5669 1.42147C29.0249 1.42147 29.3871 1.53467 29.6536 1.76107C29.92 1.98321 30.0532 2.28437 30.0532 2.66456V2.74145C30.0532 3.12164 29.92 3.42493 29.6536 3.65134C29.3871 3.87347 29.0249 3.98453 28.5669 3.98453H26.6684V5.62489H26.0439V1.42147H28.5669ZM28.5544 3.41425C28.8292 3.41425 29.0416 3.35658 29.1914 3.24124C29.3455 3.12164 29.4225 2.95504 29.4225 2.74145V2.66456C29.4225 2.45097 29.3455 2.28651 29.1914 2.17117C29.0416 2.05156 28.8292 1.99176 28.5544 1.99176H26.6684V3.41425H28.5544ZM34.5137 5.52878V5.62489H33.8767L33.3896 4.56122H31.079L30.5918 5.62489H29.9548V5.52878L31.8908 1.42147H32.5777L34.5137 5.52878ZM33.1211 3.98453L32.2342 2.05583L31.3475 3.98453H33.1211ZM38.6259 3.49114C38.8465 3.57658 39.0152 3.69405 39.1317 3.84356C39.2483 3.99307 39.3066 4.16608 39.3066 4.36259V4.43947C39.3066 4.84102 39.1171 5.15286 38.7382 5.37499C38.3636 5.59285 37.8286 5.70179 37.1333 5.70179C36.3797 5.70179 35.8052 5.55654 35.4097 5.26606C35.0183 4.97131 34.8226 4.542 34.8226 3.97812V3.92045H35.4534V3.97812C35.4534 4.36686 35.5887 4.65307 35.8593 4.83675C36.1341 5.01617 36.5629 5.10587 37.1458 5.10587C37.6662 5.10587 38.0513 5.05034 38.3011 4.93927C38.5509 4.8282 38.6758 4.6552 38.6758 4.42025V4.34977C38.6758 4.15327 38.5821 4.01444 38.3948 3.93327C38.2074 3.84784 37.8889 3.80512 37.4393 3.80512H36.3464V3.23484H37.3956C37.8119 3.23484 38.1117 3.18999 38.2948 3.10027C38.4822 3.01057 38.5759 2.86533 38.5759 2.66456V2.59407C38.5759 2.15835 38.0825 1.94049 37.0958 1.94049C36.5463 1.94049 36.1383 2.03447 35.8718 2.22243C35.6053 2.41039 35.4721 2.69446 35.4721 3.07465V3.12591H34.8476V3.07465C34.8476 2.51504 35.0412 2.08787 35.4284 1.79312C35.8197 1.49409 36.3797 1.34458 37.1083 1.34458C37.7745 1.34458 38.2907 1.45137 38.6571 1.66496C39.0234 1.87855 39.2067 2.17757 39.2067 2.56204V2.64533C39.2067 3.02552 39.013 3.30746 38.6259 3.49114ZM42.6914 1.42147C43.1494 1.42147 43.5116 1.53467 43.7781 1.76107C44.0445 1.98321 44.1777 2.28437 44.1777 2.66456V2.74145C44.1777 3.12164 44.0445 3.42493 43.7781 3.65134C43.5116 3.87347 43.1494 3.98453 42.6914 3.98453H40.7929V5.62489H40.1684V1.42147H42.6914ZM42.6789 3.41425C42.9537 3.41425 43.1661 3.35658 43.3159 3.24124C43.47 3.12164 43.547 2.95504 43.547 2.74145V2.66456C43.547 2.45097 43.47 2.28651 43.3159 2.17117C43.1661 2.05156 42.9537 1.99176 42.6789 1.99176H40.7929V3.41425H42.6789ZM48.6382 5.52878V5.62489H48.0012L47.5141 4.56122H45.2034L44.7163 5.62489H44.0793V5.52878L46.0153 1.42147H46.7022L48.6382 5.52878ZM47.2456 3.98453L46.3587 2.05583L45.4719 3.98453H47.2456ZM52.9568 1.42147V1.99176H49.9592V3.17076H51.789C52.2594 3.17076 52.6238 3.27542 52.8819 3.48474C53.1441 3.68978 53.2753 3.98026 53.2753 4.35617V4.43947C53.2753 4.81112 53.1441 5.1016 52.8819 5.31092C52.6196 5.52024 52.2553 5.62489 51.789 5.62489H49.3347V1.42147H52.9568ZM51.7827 5.05461C52.0492 5.05461 52.2594 4.99908 52.4135 4.88801C52.5717 4.77695 52.6508 4.62744 52.6508 4.43947V4.35617C52.6508 4.16395 52.5738 4.01444 52.4198 3.90764C52.2657 3.79657 52.0534 3.74104 51.7827 3.74104H49.9592V5.05461H51.7827ZM56.405 5.70179C55.9346 5.70179 55.5224 5.61421 55.1686 5.43907C54.8146 5.26393 54.5419 5.01617 54.3504 4.69578C54.1589 4.3754 54.0632 3.99949 54.0632 3.56804V3.48474C54.0632 3.05329 54.1589 2.67737 54.3504 2.35699C54.5419 2.03234 54.8146 1.78244 55.1686 1.60729C55.5224 1.43215 55.9346 1.34458 56.405 1.34458C56.8755 1.34458 57.2856 1.43215 57.6353 1.60729C57.9892 1.78244 58.2619 2.03234 58.4534 2.35699C58.6449 2.67737 58.7407 3.05329 58.7407 3.48474V3.56804C58.7407 3.99949 58.6449 4.3754 58.4534 4.69578C58.2619 5.01617 57.9892 5.26393 57.6353 5.43907C57.2856 5.61421 56.8755 5.70179 56.405 5.70179ZM56.405 5.10587C56.9421 5.10587 57.3605 4.97131 57.6603 4.70219C57.96 4.43307 58.11 4.05929 58.11 3.58085V3.47833C58.11 2.99562 57.96 2.61971 57.6603 2.35058C57.3605 2.07719 56.9421 1.94049 56.405 1.94049C55.868 1.94049 55.4475 2.07719 55.1435 2.35058C54.8438 2.61971 54.6939 2.99562 54.6939 3.47833V3.58085C54.6939 4.05929 54.8438 4.43307 55.1435 4.70219C55.4475 4.97131 55.868 5.10587 56.405 5.10587ZM59.0321 1.99176V1.42147H63.1978V1.99176H61.424V5.62489H60.8056V1.99176H59.0321ZM67.9027 1.51759L65.9663 3.48474L67.84 5.52878V5.62489H67.1157L65.4169 3.78589H64.4739V5.62489H63.8496V1.42147H64.4739V3.20921H65.4047L67.1529 1.42147H67.9027V1.51759ZM72.972 5.52878V5.62489H72.3348L71.8475 4.56122H69.5371L69.0498 5.62489H68.4132V5.52878L70.349 1.42147H71.0361L72.972 5.52878ZM71.5789 3.98453L70.6926 2.05583L69.8057 3.98453H71.5789ZM78.001 5.70179C77.5222 5.70179 77.1038 5.61635 76.7456 5.44548C76.388 5.27034 76.1109 5.02257 75.9153 4.70219C75.7241 4.3818 75.6278 4.00803 75.6278 3.58085V3.47192C75.6278 3.04474 75.7241 2.67096 75.9153 2.35058C76.1109 2.0302 76.388 1.78244 76.7456 1.60729C77.1038 1.43215 77.5222 1.34458 78.001 1.34458C78.4341 1.34458 78.8234 1.41934 79.1687 1.56885C79.5184 1.71836 79.7913 1.92554 79.9868 2.19039C80.1866 2.45097 80.2865 2.74359 80.2865 3.06824V3.12591H79.6561V3.06824C79.6561 2.85465 79.5854 2.66242 79.4435 2.49155C79.3021 2.32068 79.1042 2.18612 78.8502 2.08787C78.6004 1.98962 78.3178 1.94049 78.001 1.94049C77.4431 1.94049 77.0124 2.07292 76.7084 2.33777C76.4087 2.60262 76.2589 2.97853 76.2589 3.46551V3.58726C76.2589 4.07424 76.4087 4.45015 76.7084 4.715C77.0124 4.97559 77.4431 5.10587 78.001 5.10587C78.3214 5.10587 78.6071 5.05888 78.8569 4.9649C79.1109 4.86665 79.3064 4.73209 79.4435 4.56122C79.5854 4.39035 79.6561 4.19812 79.6561 3.98453V3.92045H80.2865V3.98453C80.2865 4.30919 80.1866 4.60181 79.9868 4.86238C79.7913 5.12296 79.5184 5.328 79.1687 5.47752C78.8234 5.62703 78.4341 5.70179 78.001 5.70179ZM85.1267 5.52878V5.62489H84.4896L84.0022 4.56122H81.6918L81.2045 5.62489H80.5673V5.52878L82.5038 1.42147H83.1903L85.1267 5.52878ZM83.7336 3.98453L82.8473 2.05583L81.9604 3.98453H83.7336ZM86.4473 1.42147V4.75345L89.1641 1.42147H89.7884V5.62489H89.1641V2.29291L86.4473 5.62489H85.8229V1.42147H86.4473ZM87.8087 0.979343C87.3756 0.979343 87.0467 0.904586 86.8219 0.755074C86.5972 0.605563 86.4851 0.387703 86.4851 0.101494V0.0566406H87.0345V0.101494C87.0345 0.216832 87.1009 0.306539 87.2343 0.370615C87.3677 0.43042 87.559 0.460323 87.8087 0.460323C88.0506 0.460323 88.2333 0.43042 88.3582 0.370615C88.4873 0.306539 88.5519 0.216832 88.5519 0.101494V0.0566406H89.133V0.101494C89.133 0.391975 89.0203 0.61197 88.7955 0.76148C88.575 0.906724 88.2461 0.979343 87.8087 0.979343ZM90.4402 1.99176V1.42147H94.6055V1.99176H92.8317V5.62489H92.214V1.99176H90.4402ZM98.8731 5.52878V5.62489H98.2359L97.7486 4.56122H95.4382L94.9509 5.62489H94.3137V5.52878L96.2502 1.42147H96.9367L98.8731 5.52878ZM97.48 3.98453L96.5931 2.05583L95.7068 3.98453H97.48Z" fill="white"/>
<path fill-rule="evenodd" clip-rule="evenodd" d="M0 1.45117C0.00908851 1.50914 0.0184525 1.5772 0.0253913 1.63764C0.0379205 1.74679 0.0679858 1.94028 0.092227 2.06762C0.116469 2.19497 0.145376 2.44303 0.156487 2.61888C0.167597 2.79473 0.190528 3.00807 0.207463 3.09296C0.224397 3.17785 0.253087 3.37157 0.271225 3.5234C0.289363 3.67527 0.314443 3.85387 0.326951 3.92031C0.361486 4.10395 0.407884 4.51979 0.424066 4.79083C0.43204 4.92423 0.456259 5.11277 0.477922 5.20979C0.499564 5.30681 0.527887 5.48542 0.540868 5.60669C0.553827 5.72797 0.582925 5.9165 0.605512 6.02565C0.6281 6.1348 0.652471 6.33821 0.659671 6.47771C0.666871 6.61715 0.691176 6.85033 0.713677 6.99583C0.736197 7.1414 0.769486 7.37458 0.787669 7.51402C0.80587 7.65352 0.834603 7.84202 0.851537 7.93302C0.868471 8.02396 0.893592 8.24721 0.907346 8.42915C0.921125 8.61102 0.951874 8.87896 0.97571 9.02446C0.999563 9.17002 1.03174 9.39327 1.04725 9.52065C1.0756 9.75358 1.11355 9.9744 1.12997 10.0019C1.13483 10.0101 1.15011 10.1855 1.16395 10.3916C1.17777 10.5978 1.20671 10.8558 1.22827 10.9649C1.24985 11.0741 1.27428 11.2378 1.28262 11.3288C1.29096 11.4197 1.31627 11.5884 1.3389 11.7036C1.36151 11.8188 1.39482 12.1016 1.41292 12.332C1.43099 12.5625 1.46026 12.8304 1.47792 12.9274C1.49561 13.0244 1.52942 13.2526 1.5531 13.4345C1.57676 13.6165 1.60515 13.8001 1.61619 13.8427C1.62724 13.8853 1.65041 14.099 1.66767 14.3176C1.68495 14.5362 1.71355 14.7792 1.73126 14.8576C1.74897 14.936 1.77942 15.1291 1.79893 15.2868C1.81844 15.4445 1.84737 15.628 1.86321 15.6947C1.87905 15.7614 1.90275 15.9747 1.91586 16.1688C1.94092 16.5394 1.99151 16.9405 2.02437 17.0291C2.03505 17.058 2.06666 17.097 2.09462 17.1157C2.14031 17.1465 3.00241 17.15 10.6202 17.1501C18.1299 17.1502 19.1006 17.1465 19.1444 17.1171C19.2278 17.061 19.2431 17.0005 19.2716 16.6112C19.2869 16.4043 19.314 16.1605 19.3319 16.0696C19.3498 15.9786 19.3806 15.7702 19.4003 15.6065C19.42 15.4428 19.4395 15.3031 19.4437 15.296C19.4617 15.2651 19.497 14.9687 19.5279 14.5875C19.5463 14.3605 19.5672 14.1591 19.5744 14.1398C19.5821 14.1192 19.5675 14.083 19.5388 14.0516L19.4901 13.9985L12.1422 13.9978C7.18508 13.9974 4.78106 13.9899 4.7534 13.9747C4.70661 13.949 4.69976 13.9136 4.66802 13.5338C4.65534 13.3821 4.63116 13.2036 4.61431 13.1369C4.59744 13.0701 4.56808 12.8732 4.54907 12.6993C4.53005 12.5253 4.50671 12.3616 4.49721 12.3354C4.47501 12.2745 4.45786 12.1208 4.43046 11.7374C4.41834 11.568 4.39498 11.3745 4.37854 11.3074C4.36207 11.2403 4.33813 11.0829 4.32533 10.9577C4.31252 10.8324 4.28312 10.634 4.26002 10.5166C4.2369 10.3994 4.20251 10.105 4.1836 9.8624C4.16468 9.61983 4.13533 9.3569 4.11835 9.27808C4.10135 9.19921 4.0683 8.9859 4.04487 8.80396C4.02147 8.62208 3.99272 8.42858 3.98103 8.37402C3.96931 8.31946 3.94902 8.12596 3.93591 7.94402C3.92281 7.76215 3.90273 7.56865 3.89133 7.51408C3.87989 7.45946 3.84742 7.24615 3.81916 7.03996C3.7909 6.83377 3.75744 6.6304 3.74478 6.58796C3.73212 6.54546 3.70668 6.31227 3.68822 6.06975C3.66975 5.8272 3.64547 5.57417 3.63425 5.50747C3.54075 4.95217 3.50479 4.64052 3.53213 4.6227C3.5479 4.61245 6.74735 4.60638 10.642 4.60923L17.7231 4.61443L17.7299 4.6988C17.7336 4.74519 17.7172 4.87418 17.6934 4.98545C17.6696 5.09672 17.6439 5.26216 17.6362 5.35312C17.6285 5.44407 17.6036 5.61276 17.581 5.72797C17.5583 5.84318 17.5302 6.07637 17.5185 6.24615C17.5068 6.41596 17.4871 6.60946 17.4746 6.67615C17.4622 6.74283 17.4255 6.99002 17.3931 7.22546C17.3434 7.58627 17.3275 7.65777 17.2922 7.68071C17.2595 7.70196 16.1363 7.71065 12.1374 7.72046C8.50703 7.72933 7.01768 7.73996 7.00112 7.7569C6.98491 7.77352 6.97602 8.24121 6.972 9.28708C6.96719 10.5291 6.97127 10.7977 6.99515 10.8181C7.03456 10.8516 9.36499 10.867 15.2455 10.8724C19.5899 10.8764 19.9486 10.874 19.9813 10.8403C20.0069 10.8141 20.0249 10.7245 20.0456 10.5206C20.0614 10.3648 20.0843 10.1827 20.0964 10.116C20.1085 10.0493 20.1383 9.8409 20.1626 9.6529C20.1869 9.46496 20.2157 9.2814 20.2266 9.24502C20.2375 9.20858 20.2617 8.98077 20.2804 8.73865C20.2989 8.49658 20.328 8.24852 20.3448 8.1874C20.3617 8.12633 20.3863 7.97215 20.3995 7.84477C20.4127 7.71746 20.4325 7.56865 20.4435 7.51402C20.4883 7.29183 20.5055 7.15777 20.5271 6.86358C20.5395 6.69377 20.5642 6.46552 20.5819 6.3564C20.5996 6.24725 20.638 5.98927 20.6673 5.7831C20.6965 5.57693 20.73 5.34375 20.7418 5.26492C20.7535 5.18608 20.7733 4.96778 20.7858 4.77983C20.7983 4.59185 20.8221 4.39115 20.8388 4.3338C20.8553 4.27645 20.8849 4.09287 20.9044 3.92585C20.924 3.75882 20.9539 3.56759 20.971 3.50089C20.9881 3.43419 21.0116 3.23573 21.0233 3.05988C21.035 2.88403 21.0632 2.62108 21.086 2.47555C21.1089 2.33002 21.1424 2.09928 21.1606 1.96282C21.1788 1.82635 21.2024 1.67462 21.2132 1.62567C21.2306 1.54611 21.2276 1.53319 21.1846 1.50435C21.1427 1.47612 20.0057 1.47207 12.1626 1.47222L3.18863 1.47237L3.17124 1.45117H0Z" fill="#0F6CDA"/>
</g>
</svg>
