<svg width="16" height="16" viewBox="0 0 16 16" fill="none" xmlns="http://www.w3.org/2000/svg">
<g opacity="0.5">
<path d="M1.99992 3.33335L7.18133 7.36334C7.66281 7.73783 8.33702 7.73783 8.81851 7.36334L13.9999 3.33335M3.46659 13.3334H12.5333C13.28 13.3334 13.6534 13.3334 13.9386 13.188C14.1895 13.0602 14.3934 12.8562 14.5213 12.6053C14.6666 12.3201 14.6666 11.9468 14.6666 11.2V4.80002C14.6666 4.05328 14.6666 3.67992 14.5213 3.3947C14.3934 3.14382 14.1895 2.93984 13.9386 2.81201C13.6534 2.66669 13.28 2.66669 12.5333 2.66669H3.46659C2.71985 2.66669 2.34648 2.66669 2.06126 2.81201C1.81038 2.93984 1.60641 3.14382 1.47858 3.3947C1.33325 3.67992 1.33325 4.05328 1.33325 4.80002V11.2C1.33325 11.9468 1.33325 12.3201 1.47858 12.6053C1.60641 12.8562 1.81038 13.0602 2.06126 13.188C2.34648 13.3334 2.71985 13.3334 3.46659 13.3334Z" stroke="#151B30" stroke-width="1.2"/>
</g>
</svg>
