<svg width="16" height="16" viewBox="0 0 16 16" fill="none" xmlns="http://www.w3.org/2000/svg">
<path d="M1.99998 3.33366L7.18139 7.36365C7.66287 7.73813 8.33709 7.73813 8.81857 7.36365L14 3.33366M3.46665 13.3337H12.5333C13.28 13.3337 13.6534 13.3337 13.9386 13.1883C14.1895 13.0605 14.3935 12.8565 14.5213 12.6056C14.6666 12.3204 14.6666 11.9471 14.6666 11.2003V4.80033C14.6666 4.05359 14.6666 3.68022 14.5213 3.395C14.3935 3.14412 14.1895 2.94015 13.9386 2.81232C13.6534 2.66699 13.28 2.66699 12.5333 2.66699H3.46665C2.71991 2.66699 2.34654 2.66699 2.06133 2.81232C1.81044 2.94015 1.60647 3.14412 1.47864 3.395C1.33331 3.68022 1.33331 4.05359 1.33331 4.80033V11.2003C1.33331 11.9471 1.33331 12.3204 1.47864 12.6056C1.60647 12.8565 1.81044 13.0605 2.06133 13.1883C2.34654 13.3337 2.71991 13.3337 3.46665 13.3337Z" stroke="#666A7B"/>
</svg>
