<svg width="16" height="16" viewBox="0 0 16 16" fill="none" xmlns="http://www.w3.org/2000/svg">
<path d="M2.00001 3.33366L7.18142 7.36365C7.6629 7.73813 8.33712 7.73813 8.8186 7.36365L14 3.33366M3.46668 13.3337H12.5333C13.2801 13.3337 13.6534 13.3337 13.9387 13.1883C14.1895 13.0605 14.3935 12.8565 14.5214 12.6056C14.6667 12.3204 14.6667 11.9471 14.6667 11.2003V4.80033C14.6667 4.05359 14.6667 3.68022 14.5214 3.395C14.3935 3.14412 14.1895 2.94015 13.9387 2.81232C13.6534 2.66699 13.2801 2.66699 12.5333 2.66699H3.46668C2.71994 2.66699 2.34657 2.66699 2.06136 2.81232C1.81047 2.94015 1.6065 3.14412 1.47867 3.395C1.33334 3.68022 1.33334 4.05359 1.33334 4.80033V11.2003C1.33334 11.9471 1.33334 12.3204 1.47867 12.6056C1.6065 12.8565 1.81047 13.0605 2.06136 13.1883C2.34657 13.3337 2.71994 13.3337 3.46668 13.3337Z" stroke="#666A7B" stroke-width="1.2"/>
</svg>
