<svg width="16" height="16" viewBox="0 0 16 16" fill="none" xmlns="http://www.w3.org/2000/svg">
<path d="M2.00004 3.33329L7.18145 7.36328C7.66293 7.73777 8.33715 7.73776 8.81863 7.36328L14 3.33329M3.46671 13.3333H12.5334C13.2801 13.3333 13.6535 13.3333 13.9387 13.188C14.1896 13.0601 14.3936 12.8562 14.5214 12.6053C14.6667 12.3201 14.6667 11.9467 14.6667 11.2V4.79996C14.6667 4.05322 14.6667 3.67985 14.5214 3.39464C14.3936 3.14376 14.1896 2.93978 13.9387 2.81195C13.6535 2.66663 13.2801 2.66663 12.5334 2.66663H3.46671C2.71997 2.66663 2.3466 2.66663 2.06139 2.81195C1.8105 2.93978 1.60653 3.14376 1.4787 3.39464C1.33337 3.67985 1.33337 4.05322 1.33337 4.79996V11.2C1.33337 11.9467 1.33337 12.3201 1.4787 12.6053C1.60653 12.8562 1.8105 13.0601 2.06139 13.188C2.3466 13.3333 2.71997 13.3333 3.46671 13.3333Z" stroke="#0F6CDA" stroke-width="1.2"/>
</svg>
