<svg width="545" height="391" viewBox="0 0 545 391" fill="none" xmlns="http://www.w3.org/2000/svg">
<path opacity="0.1" d="M505.914 298.161C509.066 283.873 510.909 269.327 511.419 254.705C522.727 254.634 534.002 255.926 545 258.556C535.51 246.644 524.061 236.433 511.144 228.357C507.549 172.685 485.138 119.883 447.584 78.6012C410.029 37.3194 359.556 10.0054 304.434 1.13362C249.313 -7.73819 192.809 2.35825 144.181 29.7689C95.5527 57.1796 57.6823 100.279 36.7737 152.008C72.2314 125.107 110.515 102.143 150.948 83.5242C143.517 92.8203 140.764 105.032 145.994 121.149C159.316 162.294 214.422 138.971 214.422 138.971C214.422 138.971 180.345 137.651 180.4 108.772C180.4 69.4426 223.065 58.6612 246.461 55.7459C252.66 55.0997 258.89 54.7876 265.123 54.8108C308.278 54.867 350.127 69.6064 383.778 96.6021C417.43 123.598 440.877 161.24 450.258 203.329C406.768 193.703 347.314 195.793 269.747 229.512C107.734 299.866 0 210.37 0 210.37C0 210.37 121.772 371.155 282.629 306.797C355.736 277.533 412.549 264.056 454.277 258.391C453.713 266.541 452.609 274.644 450.974 282.649C428.188 283.558 405.778 288.746 384.913 297.941C264.573 347.447 237.047 335.95 237.047 335.95C237.047 335.95 292.924 376.16 396.199 333.035C410.321 327.041 424.901 322.185 439.798 318.513C425.238 352.746 400.928 381.948 369.891 402.486C338.854 423.024 302.459 433.992 265.233 434.027H261.765C215.633 435.512 168.179 420.551 123.643 398.933C134.654 398.658 144.673 393.432 151.774 379.461C168.289 347.227 121.827 328.469 121.827 328.469C121.827 328.469 141.26 349.372 124.139 366.424C108.835 381.551 90.0626 378.8 74.5934 371.649C65.8404 366.149 57.3626 360.648 49.1601 355.147C45.9121 352.342 44.0404 350.472 44.0404 350.472L47.1232 353.717L42.9394 350.802C64.3558 395.642 98.8454 432.961 141.877 457.856C184.91 482.751 234.471 494.058 284.053 490.291C333.634 486.525 380.915 467.861 419.686 436.752C458.457 405.643 486.904 363.543 501.29 315.983C525.732 321.483 534.65 334.795 534.65 334.795C528.861 320.04 518.87 307.303 505.914 298.161ZM256.26 209.435C371.536 156.188 423.283 182.756 423.283 182.756C423.283 182.756 369.444 113.338 242.002 171.755C129.038 223.681 90.8333 177.641 90.8333 177.641C90.8333 177.641 126.451 269.447 256.26 209.435Z" fill="url(#paint0_linear_3_199628)"/>
<defs>
<linearGradient id="paint0_linear_3_199628" x1="578.63" y1="-134.372" x2="107.383" y2="306.808" gradientUnits="userSpaceOnUse">
<stop/>
<stop offset="1"/>
</linearGradient>
</defs>
</svg>
