<svg width="90" height="90" viewBox="0 0 90 90" fill="none" xmlns="http://www.w3.org/2000/svg">
<path fill-rule="evenodd" clip-rule="evenodd" d="M76.5003 37.2C76.5003 54.4313 53.4378 83.2498 45.0003 84C37.1253 83.2498 13.5003 54.4313 13.5003 37.2C13.5003 19.9687 27.6034 6 45.0003 6C62.3973 6 76.5003 19.9687 76.5003 37.2ZM45.0003 52.8C53.6988 52.8 60.7503 45.8156 60.7503 37.2C60.7503 28.5844 53.6988 21.6 45.0003 21.6C36.3019 21.6 29.2503 28.5844 29.2503 37.2C29.2503 45.8156 36.3019 52.8 45.0003 52.8Z" fill="white"/>
<path d="M60.7503 37.2C60.7503 45.8156 53.6988 52.8 45.0003 52.8C36.3019 52.8 29.2503 45.8156 29.2503 37.2C29.2503 28.5844 36.3019 21.6 45.0003 21.6C53.6988 21.6 60.7503 28.5844 60.7503 37.2Z" fill="white"/>
<g opacity="0.74">
<path d="M63.0532 41.829C63.2909 40.7546 63.4299 39.6608 63.4683 38.5613C64.321 38.5559 65.1712 38.6531 66.0004 38.8508C65.2848 37.9551 64.4216 37.1872 63.4476 36.58C63.1765 32.3936 61.4867 28.423 58.655 25.3188C55.8233 22.2145 52.0175 20.1606 47.8612 19.4935C43.7049 18.8263 39.4444 19.5855 35.7778 21.6467C32.1111 23.7079 29.2556 26.9489 27.679 30.8387C30.3526 28.8158 33.2393 27.0891 36.288 25.689C35.7277 26.388 35.5201 27.3063 35.9145 28.5182C36.919 31.6122 41.0741 29.8584 41.0741 29.8584C41.0741 29.8584 38.5046 29.7591 38.5088 27.5876C38.5088 24.6301 41.7258 23.8194 43.4899 23.6001C43.9574 23.5515 44.4271 23.5281 44.8971 23.5298C48.151 23.534 51.3065 24.6424 53.8439 26.6724C56.3813 28.7024 58.1493 31.533 58.8567 34.6979C55.5774 33.9741 51.0944 34.1313 45.2458 36.6668C33.0296 41.9572 24.9062 35.2274 24.9062 35.2274C24.9062 35.2274 34.088 47.3179 46.2171 42.4784C51.7295 40.2779 56.0133 39.2645 59.1597 38.8384C59.1171 39.4513 59.0339 40.0606 58.9106 40.6625C57.1925 40.7309 55.5027 41.121 53.9295 41.8124C44.8556 45.5351 42.7801 44.6706 42.7801 44.6706C42.7801 44.6706 46.9933 47.6943 54.7804 44.4514C55.8453 44.0007 56.9447 43.6355 58.068 43.3594C56.9701 45.9337 55.1371 48.1295 52.7968 49.6739C50.4565 51.2183 47.7123 52.0431 44.9054 52.0457H44.6439C41.1654 52.1574 37.5873 51.0323 34.2292 49.4068C35.0594 49.3861 35.8148 48.9931 36.3503 47.9425C37.5956 45.5186 34.0922 44.1081 34.0922 44.1081C34.0922 44.1081 35.5575 45.6799 34.2665 46.9622C33.1126 48.0997 31.6971 47.8929 30.5307 47.3551C29.8707 46.9415 29.2315 46.5279 28.613 46.1142C28.3681 45.9033 28.2269 45.7626 28.2269 45.7626L28.4594 46.0067L28.1439 45.7875C29.7588 49.1593 32.3594 51.9656 35.6041 53.8376C38.8488 55.7096 42.5859 56.5599 46.3244 56.2766C50.0629 55.9934 53.6281 54.5899 56.5515 52.2506C59.4749 49.9113 61.6198 46.7455 62.7046 43.1692C64.5476 43.5828 65.22 44.5838 65.22 44.5838C64.7835 43.4742 64.0302 42.5165 63.0532 41.829ZM44.2288 35.1571C52.9208 31.1531 56.8227 33.1509 56.8227 33.1509C56.8227 33.1509 52.7631 27.9309 43.1537 32.3237C34.636 36.2284 31.7552 32.7663 31.7552 32.7663C31.7552 32.7663 34.4409 39.6698 44.2288 35.1571Z" fill="#0F6CDA"/>
</g>
</svg>
