<svg width="55" height="39" viewBox="0 0 55 39" fill="none" xmlns="http://www.w3.org/2000/svg">
<path d="M8.9375 16.9375C13.5977 16.9375 17.375 13.1599 17.375 8.5C17.375 3.8401 13.5977 0.0625 8.9375 0.0625C4.2773 0.0625 0.5 3.8401 0.5 8.5C0.5 13.1599 4.2773 16.9375 8.9375 16.9375Z" fill="#E70025"/>
<path d="M19.0625 16.9375C23.7227 16.9375 27.5 13.1599 27.5 8.5C27.5 3.8401 23.7227 0.0625 19.0625 0.0625C14.4023 0.0625 10.625 3.8401 10.625 8.5C10.625 13.1599 14.4023 16.9375 19.0625 16.9375Z" fill="#F59E2D"/>
<path fill-rule="evenodd" clip-rule="evenodd" d="M10.625 8.50049C10.625 7.19227 10.9301 5.90202 11.516 4.73229C12.1019 3.56255 12.9524 2.54552 14 1.76196C15.0476 2.54549 15.8981 3.56251 16.484 4.73225C17.0699 5.90199 17.375 7.1922 17.375 8.50049C17.375 9.80877 17.0699 11.099 16.484 12.2687C15.8981 13.4384 15.0476 14.4555 14 15.239C12.9524 14.4555 12.1019 13.4385 11.516 12.2687C10.9301 11.099 10.625 9.80871 10.625 8.50049Z" fill="#FC5D1D"/>
<mask id="mask0_92_118872" style="mask-type:alpha" maskUnits="userSpaceOnUse" x="37" y="0" width="18" height="17">
<path d="M52.5385 8.52727C52.5234 12.1258 49.602 15.0385 46 15.0385C42.3888 15.0385 39.4615 12.1111 39.4615 8.5C39.4615 4.88891 42.3888 1.96154 46 1.96154C47.328 1.96154 48.5637 2.35761 49.5955 3.03808L51.1948 1.77184C49.7583 0.660993 47.9563 0 46 0C41.3054 0 37.5 3.80558 37.5 8.5C37.5 13.1944 41.3054 17 46 17C50.6946 17 54.5 13.1944 54.5 8.5C54.5 8.01243 54.4588 7.5344 54.3804 7.06925L52.5385 8.52727Z" fill="#1D9E3B"/>
</mask>
<g mask="url(#mask0_92_118872)">
<path d="M52.5394 8.52653C52.5244 12.1251 49.603 15.0377 46.001 15.0377C42.3898 15.0377 39.4625 12.1103 39.4625 8.49927C39.4625 4.88817 42.3898 1.96081 46.001 1.96081C47.3289 1.96081 48.5647 2.35687 49.5965 3.03735L51.1958 1.77111C49.7593 0.66026 47.9573 -0.000732422 46.001 -0.000732422C41.3064 -0.000732422 37.501 3.80485 37.501 8.49927C37.501 13.1937 41.3064 16.9993 46.001 16.9993C50.6956 16.9993 54.501 13.1937 54.501 8.49927C54.501 8.01169 54.4598 7.53367 54.3813 7.06852L52.5394 8.52653Z" fill="#24A236"/>
<path d="M45.0202 7.19129C49.173 7.19129 52.5394 3.82482 52.5394 -0.327937C52.5394 -4.48069 49.173 -7.84717 45.0202 -7.84717C40.8675 -7.84717 37.501 -4.48069 37.501 -0.327937C37.501 3.82482 40.8675 7.19129 45.0202 7.19129Z" fill="#008ACB"/>
<g filter="url(#filter0_f_92_118872)">
<path d="M44.0394 24.1914C47.6505 24.1914 50.5779 21.2641 50.5779 17.653C50.5779 14.0419 47.6505 11.1145 44.0394 11.1145C40.4283 11.1145 37.501 14.0419 37.501 17.653C37.501 21.2641 40.4283 24.1914 44.0394 24.1914Z" fill="#77F628"/>
</g>
<g filter="url(#filter1_f_92_118872)">
<path d="M38.1547 11.7669C41.7658 11.7669 44.6931 8.8395 44.6931 5.2284C44.6931 1.61731 41.7658 -1.31006 38.1547 -1.31006C34.5436 -1.31006 31.6162 1.61731 31.6162 5.2284C31.6162 8.8395 34.5436 11.7669 38.1547 11.7669Z" fill="#19E7E8"/>
</g>
<g filter="url(#filter2_f_92_118872)">
<path d="M37.5013 16.9986C40.3902 16.9986 42.732 14.6568 42.732 11.7679C42.732 8.879 40.3902 6.53711 37.5013 6.53711C34.6124 6.53711 32.2705 8.879 32.2705 11.7679C32.2705 14.6568 34.6124 16.9986 37.5013 16.9986Z" fill="#DEFA1B"/>
</g>
</g>
<path fill-rule="evenodd" clip-rule="evenodd" d="M52.6646 3.22241C53.0916 3.7608 53.4545 4.35209 53.7422 4.98487L46 11.114V8.4986L52.6646 3.22241Z" fill="#24A236"/>
<path fill-rule="evenodd" clip-rule="evenodd" d="M42.7305 9.07242L45.9997 11.1157V8.5003L42.7305 6.45703V9.07242Z" fill="#24A236"/>
<path fill-rule="evenodd" clip-rule="evenodd" d="M12.7871 38.6243V31.124H12.4558L10.0796 38.6243H7.25764H7.24948L4.88136 31.124H4.55235V38.6243H0.5V26.0001H4.55833C5.06404 25.9978 5.55711 26.1583 5.9648 26.4578C6.37249 26.7574 6.67322 27.1801 6.82248 27.6635L8.49038 33.4981H8.84161L10.5125 27.6635C10.6625 27.1786 10.9647 26.7549 11.3746 26.4553C11.7845 26.1557 12.2799 25.9961 12.7871 26.0001H16.8454V38.6243H12.7871Z" fill="#52B461"/>
<path fill-rule="evenodd" clip-rule="evenodd" d="M28.3094 38.6242V31.1901H27.9894L25.2217 37.4182C25.0591 37.778 24.7962 38.0833 24.4643 38.2972C24.1316 38.5111 23.7454 38.6247 23.3504 38.6242H19.8037V26H23.888V33.4342H24.2229L27.0255 27.1963C27.0329 27.18 27.0396 27.1644 27.0471 27.1488V27.1443C27.2164 26.8004 27.4792 26.5108 27.8052 26.3085C28.1305 26.1063 28.507 25.9994 28.8902 26H32.4368V38.6242H28.3094Z" fill="#52B461"/>
<path fill-rule="evenodd" clip-rule="evenodd" d="M44.4119 34.9168H39.5464V38.6238H35.416V31.9404H49.14C48.7308 32.8455 48.064 33.6102 47.2234 34.1394C46.3828 34.6686 45.4047 34.9389 44.4119 34.9168Z" fill="#52B461"/>
<path fill-rule="evenodd" clip-rule="evenodd" d="M49.4008 30.4556H41.5508C38.1415 30.4556 35.307 28.3971 34.71 26H44.7803C47.3876 26 49.5003 27.8075 49.5003 29.739C49.5003 29.9813 49.4669 30.2224 49.4008 30.4556Z" fill="url(#paint0_linear_92_118872)"/>
<defs>
<filter id="filter0_f_92_118872" x="29.501" y="3.1145" width="29.0771" height="29.0769" filterUnits="userSpaceOnUse" color-interpolation-filters="sRGB">
<feFlood flood-opacity="0" result="BackgroundImageFix"/>
<feBlend mode="normal" in="SourceGraphic" in2="BackgroundImageFix" result="shape"/>
<feGaussianBlur stdDeviation="4" result="effect1_foregroundBlur_92_118872"/>
</filter>
<filter id="filter1_f_92_118872" x="23.6162" y="-9.31006" width="29.0771" height="29.0769" filterUnits="userSpaceOnUse" color-interpolation-filters="sRGB">
<feFlood flood-opacity="0" result="BackgroundImageFix"/>
<feBlend mode="normal" in="SourceGraphic" in2="BackgroundImageFix" result="shape"/>
<feGaussianBlur stdDeviation="4" result="effect1_foregroundBlur_92_118872"/>
</filter>
<filter id="filter2_f_92_118872" x="26.2705" y="0.537109" width="22.4619" height="22.4614" filterUnits="userSpaceOnUse" color-interpolation-filters="sRGB">
<feFlood flood-opacity="0" result="BackgroundImageFix"/>
<feBlend mode="normal" in="SourceGraphic" in2="BackgroundImageFix" result="shape"/>
<feGaussianBlur stdDeviation="3" result="effect1_foregroundBlur_92_118872"/>
</filter>
<linearGradient id="paint0_linear_92_118872" x1="13123.7" y1="453.738" x2="12829.3" y2="453.738" gradientUnits="userSpaceOnUse">
<stop stop-color="#198ECA"/>
<stop offset="1" stop-color="#1DB5E4"/>
</linearGradient>
</defs>
</svg>
