<svg width="32" height="33" viewBox="0 0 32 33" fill="none" xmlns="http://www.w3.org/2000/svg">
<path d="M16.0002 31.3711C24.317 31.3711 31.0591 24.629 31.0591 16.3122C31.0591 7.99548 24.317 1.25342 16.0002 1.25342C7.68347 1.25342 0.941406 7.99548 0.941406 16.3122C0.941406 24.629 7.68347 31.3711 16.0002 31.3711Z" fill="#0F6CDA"/>
<path d="M28.8801 8.50049C26.1225 12.6605 21.3836 15.404 16.0001 15.404C10.6166 15.404 5.87776 12.6605 3.12012 8.50049C5.76482 4.15694 10.5413 1.25342 16.0001 1.25342C21.4589 1.25342 26.2354 4.15694 28.8801 8.50049Z" fill="#0860C7"/>
<path d="M25.3723 9.13766V12.3621C25.3723 12.5744 25.2001 12.7466 24.9878 12.7466H7.01339C6.80105 12.7466 6.62891 12.5744 6.62891 12.3621V9.13766C6.62891 8.92531 6.80105 8.75317 7.01339 8.75317H24.9878C25.2001 8.75317 25.3723 8.92531 25.3723 9.13766Z" fill="#313B5A"/>
<path d="M24.4058 10.5261V11.3075C24.4058 11.3448 24.3755 11.3751 24.3382 11.3751H7.66424C7.62693 11.3751 7.59668 11.3448 7.59668 11.3075V10.5261C7.59668 10.4887 7.62693 10.4585 7.66424 10.4585H24.3382C24.3755 10.4585 24.4058 10.4887 24.4058 10.5261Z" fill="#20273A"/>
<path d="M23.4915 10.4578V26.0622L21.6216 24.5927L19.748 26.0622L17.878 24.5927L16.0045 26.0622L14.1345 24.5927L12.2609 26.0622L10.3873 24.5927L8.51367 26.0622V10.4578H23.4915Z" fill="white"/>
<path d="M16.9541 14.9072H10.6255C10.4762 14.9072 10.3555 14.7865 10.3555 14.6372C10.3555 14.488 10.4762 14.3672 10.6255 14.3672H16.9541C17.1034 14.3672 17.2242 14.488 17.2242 14.6372C17.2242 14.7865 17.1034 14.9072 16.9541 14.9072Z" fill="#20273A"/>
<path d="M14.6505 16.8723H10.6255C10.4762 16.8723 10.3555 16.7515 10.3555 16.6023C10.3555 16.453 10.4762 16.3323 10.6255 16.3323H14.6505C14.7998 16.3323 14.9205 16.453 14.9205 16.6023C14.9205 16.7515 14.7998 16.8723 14.6505 16.8723Z" fill="#20273A"/>
<path d="M15.8023 18.8374H10.6255C10.4762 18.8374 10.3555 18.7166 10.3555 18.5674C10.3555 18.4181 10.4762 18.2974 10.6255 18.2974H15.8023C15.9516 18.2974 16.0724 18.4181 16.0724 18.5674C16.0724 18.7166 15.9516 18.8374 15.8023 18.8374Z" fill="#20273A"/>
<path d="M21.3767 14.9072H19.0464C18.8971 14.9072 18.7764 14.7865 18.7764 14.6372C18.7764 14.488 18.8971 14.3672 19.0464 14.3672H21.3767C21.5259 14.3672 21.6467 14.488 21.6467 14.6372C21.6467 14.7865 21.5259 14.9072 21.3767 14.9072Z" fill="#20273A"/>
<path d="M16.9541 20.8323H10.6255C10.4762 20.8323 10.3555 20.7115 10.3555 20.5623C10.3555 20.413 10.4762 20.2922 10.6255 20.2922H16.9541C17.1034 20.2922 17.2242 20.413 17.2242 20.5623C17.2242 20.7115 17.1034 20.8323 16.9541 20.8323Z" fill="#20273A"/>
<path d="M21.3767 20.8323H19.0464C18.8971 20.8323 18.7764 20.7115 18.7764 20.5623C18.7764 20.413 18.8971 20.2922 19.0464 20.2922H21.3767C21.5259 20.2922 21.6467 20.413 21.6467 20.5623C21.6467 20.7115 21.5259 20.8323 21.3767 20.8323Z" fill="#20273A"/>
<path d="M16.9541 22.8157H10.6255C10.4762 22.8157 10.3555 22.6949 10.3555 22.5457C10.3555 22.3964 10.4762 22.2756 10.6255 22.2756H16.9541C17.1034 22.2756 17.2242 22.3964 17.2242 22.5457C17.2242 22.6949 17.1034 22.8157 16.9541 22.8157Z" fill="#20273A"/>
<path d="M21.3767 22.8157H19.0464C18.8971 22.8157 18.7764 22.6949 18.7764 22.5457C18.7764 22.3964 18.8971 22.2756 19.0464 22.2756H21.3767C21.5259 22.2756 21.6467 22.3964 21.6467 22.5457C21.6467 22.6949 21.5259 22.8157 21.3767 22.8157Z" fill="#20273A"/>
<path d="M21.0671 18.8374H19.355C19.2057 18.8374 19.085 18.7166 19.085 18.5674C19.085 18.4181 19.2057 18.2974 19.355 18.2974H21.0671C21.2164 18.2974 21.3372 18.4181 21.3372 18.5674C21.3372 18.7166 21.2164 18.8374 21.0671 18.8374Z" fill="#20273A"/>
<g opacity="0.1">
<path d="M24.0978 27.6828C24.0978 27.9704 20.5714 28.2042 16.2281 28.2042C11.8805 28.2042 8.3584 27.9704 8.3584 27.6828C8.3584 27.3951 11.8805 27.1614 16.2281 27.1614C20.5714 27.1614 24.0978 27.3951 24.0978 27.6828Z" fill="#20273A"/>
</g>
</svg>
