<svg width="32" height="33" viewBox="0 0 32 33" fill="none" xmlns="http://www.w3.org/2000/svg">
<g clip-path="url(#clip0_92_118963)">
<path d="M21.2731 10.5706C27.1161 10.4814 31.8851 15.0802 31.9982 20.9227C32.0149 21.7805 31.9291 22.6155 31.7525 23.4163C31.4534 24.7724 31.2755 26.1523 31.2755 27.541V30.2253C31.2755 30.6365 30.9422 30.9699 30.5309 30.9699H27.8467C26.458 30.9699 25.0781 31.1477 23.722 31.4468C22.9212 31.6235 22.0863 31.7092 21.2284 31.6926C15.386 31.5795 10.7871 26.8106 10.8763 20.9678C10.9632 15.2647 15.5701 10.6577 21.2731 10.5706Z" fill="url(#paint0_linear_92_118963)"/>
<path d="M21.2731 10.5706C27.1161 10.4814 31.8851 15.0802 31.9982 20.9227C32.0149 21.7805 31.9291 22.6155 31.7525 23.4163C31.4534 24.7724 31.2755 26.1523 31.2755 27.541V30.2253C31.2755 30.6365 30.9422 30.9699 30.5309 30.9699H27.8467C26.458 30.9699 25.0781 31.1477 23.722 31.4468C22.9212 31.6235 22.0863 31.7092 21.2284 31.6926C15.386 31.5795 10.7871 26.8106 10.8763 20.9678C10.9632 15.2647 15.5701 10.6577 21.2731 10.5706Z" fill="url(#paint1_linear_92_118963)"/>
<path d="M13.0686 0.931488C5.95026 0.822739 0.140335 6.42529 0.00245995 13.5432C-0.0177275 14.5881 0.0867098 15.6054 0.301959 16.581C0.666334 18.233 0.882958 19.9142 0.882958 21.606V24.8761C0.882958 25.3771 1.28908 25.7833 1.79014 25.7833H5.06026C6.75201 25.7833 8.4332 25.9999 10.0853 26.3643C11.0609 26.5795 12.0781 26.684 13.1231 26.6638C20.2408 26.5259 25.8433 20.7162 25.7348 13.598C25.6289 6.65004 20.0165 1.03755 13.0686 0.931488Z" fill="url(#paint2_linear_92_118963)"/>
<path d="M8.26191 13.1083C7.89842 12.7221 7.38392 12.4795 6.81154 12.4795C5.71073 12.4795 4.81836 13.3719 4.81836 14.4727C4.81836 15.045 5.06086 15.5595 5.44717 15.923L9.74679 20.2227C10.1103 20.6089 10.6248 20.8515 11.1972 20.8515C12.298 20.8515 13.1903 19.9591 13.1903 18.8583C13.1903 18.286 12.9478 17.7715 12.5615 17.4079L8.26191 13.1083Z" fill="url(#paint3_linear_92_118963)"/>
<path d="M6.81154 16.4656C7.91235 16.4656 8.80473 15.5732 8.80473 14.4724C8.80473 13.3716 7.91235 12.4792 6.81154 12.4792C5.71074 12.4792 4.81836 13.3716 4.81836 14.4724C4.81836 15.5732 5.71074 16.4656 6.81154 16.4656Z" fill="white"/>
<path d="M13.8986 13.1083C13.5351 12.7221 13.0206 12.4795 12.4483 12.4795C11.3475 12.4795 10.4551 13.3719 10.4551 14.4727C10.4551 15.045 10.6976 15.5595 11.0839 15.923L15.3835 20.2227C15.7471 20.6089 16.2616 20.8515 16.8339 20.8515C17.9347 20.8515 18.8271 19.9591 18.8271 18.8583C18.8271 18.286 18.5845 17.7715 18.1983 17.4079L13.8986 13.1083Z" fill="url(#paint4_linear_92_118963)"/>
<path d="M12.4483 16.4656C13.5491 16.4656 14.4414 15.5732 14.4414 14.4724C14.4414 13.3716 13.5491 12.4792 12.4483 12.4792C11.3475 12.4792 10.4551 13.3716 10.4551 14.4724C10.4551 15.5732 11.3475 16.4656 12.4483 16.4656Z" fill="white"/>
<path d="M19.5354 13.1083C19.1719 12.7221 18.6574 12.4795 18.085 12.4795C16.9842 12.4795 16.0918 13.3719 16.0918 14.4727C16.0918 15.045 16.3344 15.5595 16.7206 15.923L21.0202 20.2227C21.3838 20.6089 21.8983 20.8515 22.4706 20.8515C23.5714 20.8515 24.4638 19.9591 24.4638 18.8583C24.4638 18.286 24.2212 17.7715 23.835 17.4079L19.5354 13.1083Z" fill="url(#paint5_linear_92_118963)"/>
<path d="M18.086 16.4656C19.1868 16.4656 20.0791 15.5732 20.0791 14.4724C20.0791 13.3716 19.1868 12.4792 18.086 12.4792C16.9852 12.4792 16.0928 13.3716 16.0928 14.4724C16.0928 15.5732 16.9852 16.4656 18.086 16.4656Z" fill="white"/>
</g>
<defs>
<linearGradient id="paint0_linear_92_118963" x1="19.3054" y1="19.0004" x2="34.8131" y2="34.5081" gradientUnits="userSpaceOnUse">
<stop stop-color="#FFB950"/>
<stop offset="1" stop-color="#FE9921"/>
</linearGradient>
<linearGradient id="paint1_linear_92_118963" x1="24.3818" y1="24.0766" x2="17.795" y2="17.4904" gradientUnits="userSpaceOnUse">
<stop stop-color="#FFB950" stop-opacity="0"/>
<stop offset="1" stop-color="#FFB950"/>
</linearGradient>
<linearGradient id="paint2_linear_92_118963" x1="8.16682" y1="11.7177" x2="24.5398" y2="28.0907" gradientUnits="userSpaceOnUse">
<stop stop-color="#0F6CDA"/>
<stop offset="1" stop-color="#64AFE2"/>
</linearGradient>
<linearGradient id="paint3_linear_92_118963" x1="11.2454" y1="18.9069" x2="2.6248" y2="10.2866" gradientUnits="userSpaceOnUse">
<stop stop-color="#00A2F3" stop-opacity="0"/>
<stop offset="1" stop-color="#0075CD"/>
</linearGradient>
<linearGradient id="paint4_linear_92_118963" x1="16.8817" y1="18.9067" x2="8.26139" y2="10.2864" gradientUnits="userSpaceOnUse">
<stop stop-color="#00A2F3" stop-opacity="0"/>
<stop offset="1" stop-color="#0075CD"/>
</linearGradient>
<linearGradient id="paint5_linear_92_118963" x1="22.5184" y1="18.9068" x2="13.8981" y2="10.2865" gradientUnits="userSpaceOnUse">
<stop stop-color="#00A2F3" stop-opacity="0"/>
<stop offset="1" stop-color="#0075CD"/>
</linearGradient>
<clipPath id="clip0_92_118963">
<rect width="32" height="32" fill="white" transform="translate(0 0.312256)"/>
</clipPath>
</defs>
</svg>
