<svg width="16" height="16" viewBox="0 0 16 16" fill="none" xmlns="http://www.w3.org/2000/svg">
<path d="M5.33343 10.6666L10.6668 5.33331M5.66664 5.66661H6.06664M5.66664 6.06661H6.06664M9.9333 9.93328H10.3333M9.9333 10.3333H10.3333M13.6118 6.1442C13.4161 5.88297 13.3073 5.59998 13.2638 5.27345L13.0898 4.07617C13.0028 3.44488 12.5025 2.9442 11.85 2.83535L10.6537 2.6612C10.3492 2.61767 10.0447 2.48705 9.78368 2.3129L8.84839 1.61631C8.58738 1.42039 8.28286 1.33331 7.97835 1.33331C7.67384 1.33331 7.36932 1.42039 7.10831 1.61631L6.15127 2.33467C5.89026 2.53059 5.6075 2.63944 5.28123 2.68297L4.10668 2.85712C3.4759 2.9442 2.97563 3.44488 2.86688 4.09794L2.69287 5.29522C2.64937 5.59998 2.51886 5.90474 2.34485 6.16597L1.62707 7.12379C1.23556 7.64624 1.23556 8.3646 1.62707 8.86528L2.34485 9.82311C2.54061 10.0843 2.64937 10.3673 2.69287 10.6939L2.86688 11.8911C2.95388 12.5224 3.45415 13.0231 4.10668 13.132L5.30298 13.3061C5.6075 13.3496 5.91201 13.4803 6.17302 13.6544L7.13006 14.3728C7.65209 14.7646 8.36987 14.7646 8.87014 14.3728L9.82718 13.6544C10.0882 13.4585 10.371 13.3496 10.6972 13.3061L11.8935 13.132C12.5243 13.0449 13.0246 12.5442 13.1333 11.8911L13.3073 10.6939C13.3508 10.3891 13.4813 10.0843 13.6553 9.82311L14.3731 8.86528C14.7646 8.34284 14.7646 7.62447 14.3731 7.12379L13.6118 6.1442ZM6.4001 5.86665C6.4001 6.1612 6.16132 6.39998 5.86677 6.39998C5.57222 6.39998 5.33343 6.1612 5.33343 5.86665C5.33343 5.57209 5.57222 5.33331 5.86677 5.33331C6.16132 5.33331 6.4001 5.57209 6.4001 5.86665ZM10.6668 10.1333C10.6668 10.4279 10.428 10.6666 10.1334 10.6666C9.83888 10.6666 9.6001 10.4279 9.6001 10.1333C9.6001 9.83876 9.83888 9.59998 10.1334 9.59998C10.428 9.59998 10.6668 9.83876 10.6668 10.1333Z" stroke="#FFB627" stroke-width="1.2" stroke-linecap="round"/>
</svg>
