<svg width="20" height="20" viewBox="0 0 20 20" fill="none" xmlns="http://www.w3.org/2000/svg">
<path d="M17.4697 18.5303C17.7626 18.8232 18.2374 18.8232 18.5303 18.5303C18.8232 18.2374 18.8232 17.7626 18.5303 17.4697L17.4697 18.5303ZM14.4265 8.58824C14.4265 11.8126 11.8126 14.4265 8.58824 14.4265V15.9265C12.641 15.9265 15.9265 12.641 15.9265 8.58824H14.4265ZM8.58824 14.4265C5.36387 14.4265 2.75 11.8126 2.75 8.58824H1.25C1.25 12.641 4.53544 15.9265 8.58824 15.9265V14.4265ZM2.75 8.58824C2.75 5.36387 5.36387 2.75 8.58824 2.75V1.25C4.53544 1.25 1.25 4.53544 1.25 8.58824H2.75ZM8.58824 2.75C11.8126 2.75 14.4265 5.36387 14.4265 8.58824H15.9265C15.9265 4.53544 12.641 1.25 8.58824 1.25V2.75ZM12.7638 13.8244L17.4697 18.5303L18.5303 17.4697L13.8244 12.7638L12.7638 13.8244Z" fill="#151B30"/>
</svg>
