<svg width="22" height="20" viewBox="0 0 22 20" fill="none" xmlns="http://www.w3.org/2000/svg">
<path d="M11.9825 17C4.46596 17 0.178638 11.7447 0 3H3.76515C3.88882 9.41842 6.66459 12.1371 8.86321 12.6977V3H12.4085V8.53553C14.5796 8.2973 16.8607 5.77477 17.6302 3H21.1755C20.8855 4.43908 20.3075 5.80165 19.4776 7.0025C18.6477 8.20335 17.5837 9.21663 16.3523 9.97898C17.7269 10.6756 18.941 11.6615 19.9145 12.8717C20.888 14.082 21.5988 15.489 22 17H18.0974C17.7373 15.6876 17.0054 14.5128 15.9934 13.6228C14.9814 12.7328 13.7343 12.1673 12.4085 11.997V17H11.9825Z" fill="#0077FF"/>
</svg>
