<svg width="20" height="20" viewBox="0 0 20 20" fill="none" xmlns="http://www.w3.org/2000/svg">
<g clip-path="url(#clip0_3_199821)">
<path d="M9.99999 19.9798C15.5116 19.9798 19.9796 15.5117 19.9796 10.0001C19.9796 4.48854 15.5116 0.0205078 9.99999 0.0205078C4.48839 0.0205078 0.0203552 4.48854 0.0203552 10.0001C0.0203552 15.5117 4.48839 19.9798 9.99999 19.9798Z" fill="#FC3F1D"/>
<path d="M13.6111 16.2649H11.4204V5.42969H10.4445C8.65557 5.42969 7.71853 6.32414 7.71853 7.65932C7.71853 9.17414 8.36483 9.87599 9.70186 10.7704L10.8037 11.513L7.63705 16.263H5.28149L8.13149 12.0223C6.4926 10.8519 5.57038 9.70932 5.57038 7.78155C5.57038 5.37229 7.25001 3.7334 10.4296 3.7334H13.5963V16.2612H13.6111V16.2649Z" fill="white"/>
</g>
<defs>
<clipPath id="clip0_3_199821">
<rect width="20" height="20" fill="white"/>
</clipPath>
</defs>
</svg>
