<svg width="84" height="13" viewBox="0 0 84 13" fill="none" xmlns="http://www.w3.org/2000/svg">
<path d="M4.96861 1.28058C5.29325 0.239805 6.70675 0.239807 7.03139 1.28058L7.70434 3.43806C7.84952 3.90351 8.26591 4.21865 8.73573 4.21865H10.9135C11.964 4.21865 12.4008 5.619 11.5509 6.26224L9.78907 7.59563C9.40898 7.8833 9.24993 8.39319 9.39511 8.85864L10.0681 11.0161C10.3927 12.0569 9.24916 12.9224 8.39925 12.2791L6.63743 10.9457C6.25734 10.6581 5.74266 10.6581 5.36257 10.9457L3.60075 12.2791C2.75084 12.9224 1.60729 12.0569 1.93193 11.0161L2.60489 8.85864C2.75007 8.39319 2.59102 7.8833 2.21093 7.59563L0.44911 6.26224C-0.400799 5.619 0.0359982 4.21865 1.08654 4.21865H3.26427C3.73409 4.21865 4.15048 3.90351 4.29566 3.43806L4.96861 1.28058Z" fill="#FFB950"/>
<path d="M22.9686 1.28058C23.2933 0.239805 24.7068 0.239807 25.0314 1.28058L25.7043 3.43806C25.8495 3.90351 26.2659 4.21865 26.7357 4.21865H28.9135C29.964 4.21865 30.4008 5.619 29.5509 6.26224L27.7891 7.59563C27.409 7.8833 27.2499 8.39319 27.3951 8.85864L28.0681 11.0161C28.3927 12.0569 27.2492 12.9224 26.3993 12.2791L24.6374 10.9457C24.2573 10.6581 23.7427 10.6581 23.3626 10.9457L21.6007 12.2791C20.7508 12.9224 19.6073 12.0569 19.9319 11.0161L20.6049 8.85864C20.7501 8.39319 20.591 7.8833 20.2109 7.59563L18.4491 6.26224C17.5992 5.619 18.036 4.21865 19.0865 4.21865H21.2643C21.7341 4.21865 22.1505 3.90351 22.2957 3.43806L22.9686 1.28058Z" fill="#FFB950"/>
<path d="M40.9686 1.28058C41.2933 0.239805 42.7068 0.239807 43.0314 1.28058L43.7043 3.43806C43.8495 3.90351 44.2659 4.21865 44.7357 4.21865H46.9135C47.964 4.21865 48.4008 5.619 47.5509 6.26224L45.7891 7.59563C45.409 7.8833 45.2499 8.39319 45.3951 8.85864L46.0681 11.0161C46.3927 12.0569 45.2492 12.9224 44.3993 12.2791L42.6374 10.9457C42.2573 10.6581 41.7427 10.6581 41.3626 10.9457L39.6007 12.2791C38.7508 12.9224 37.6073 12.0569 37.9319 11.0161L38.6049 8.85864C38.7501 8.39319 38.591 7.8833 38.2109 7.59563L36.4491 6.26224C35.5992 5.619 36.036 4.21865 37.0865 4.21865H39.2643C39.7341 4.21865 40.1505 3.90351 40.2957 3.43806L40.9686 1.28058Z" fill="#FFB950"/>
<path d="M58.9686 1.28058C59.2933 0.239805 60.7068 0.239807 61.0314 1.28058L61.7043 3.43806C61.8495 3.90351 62.2659 4.21865 62.7357 4.21865H64.9135C65.964 4.21865 66.4008 5.619 65.5509 6.26224L63.7891 7.59563C63.409 7.8833 63.2499 8.39319 63.3951 8.85864L64.0681 11.0161C64.3927 12.0569 63.2492 12.9224 62.3993 12.2791L60.6374 10.9457C60.2573 10.6581 59.7427 10.6581 59.3626 10.9457L57.6007 12.2791C56.7508 12.9224 55.6073 12.0569 55.9319 11.0161L56.6049 8.85864C56.7501 8.39319 56.591 7.8833 56.2109 7.59563L54.4491 6.26224C53.5992 5.619 54.036 4.21865 55.0865 4.21865H57.2643C57.7341 4.21865 58.1505 3.90351 58.2957 3.43806L58.9686 1.28058Z" fill="#FFB950"/>
<path d="M76.9686 1.28058C77.2933 0.239805 78.7068 0.239807 79.0314 1.28058L79.7043 3.43806C79.8495 3.90351 80.2659 4.21865 80.7357 4.21865H82.9135C83.964 4.21865 84.4008 5.619 83.5509 6.26224L81.7891 7.59563C81.409 7.8833 81.2499 8.39319 81.3951 8.85864L82.0681 11.0161C82.3927 12.0569 81.2492 12.9224 80.3993 12.2791L78.6374 10.9457C78.2573 10.6581 77.7427 10.6581 77.3626 10.9457L75.6007 12.2791C74.7508 12.9224 73.6073 12.0569 73.9319 11.0161L74.6049 8.85864C74.7501 8.39319 74.591 7.8833 74.2109 7.59563L72.4491 6.26224C71.5992 5.619 72.036 4.21865 73.0865 4.21865H75.2643C75.7341 4.21865 76.1505 3.90351 76.2957 3.43806L76.9686 1.28058Z" fill="#FFB950"/>
</svg>
