<svg width="31" height="37" viewBox="0 0 31 37" fill="none" xmlns="http://www.w3.org/2000/svg">
<path d="M19.125 30.1316H30M24.5625 24.7632V35.5M1 33.7105V30.1316C1 28.2332 1.76384 26.4125 3.12348 25.0702C4.48311 23.7278 6.32718 22.9737 8.25 22.9737H15.5M4.625 8.65789C4.625 10.5563 5.38884 12.3769 6.74848 13.7193C8.10811 15.0617 9.95218 15.8158 11.875 15.8158C13.7978 15.8158 15.6419 15.0617 17.0015 13.7193C18.3612 12.3769 19.125 10.5563 19.125 8.65789C19.125 6.7595 18.3612 4.93886 17.0015 3.5965C15.6419 2.25413 13.7978 1.5 11.875 1.5C9.95218 1.5 8.10811 2.25413 6.74848 3.5965C5.38884 4.93886 4.625 6.7595 4.625 8.65789Z" stroke="white" stroke-width="2" stroke-linecap="round" stroke-linejoin="round"/>
</svg>
