<svg width="16" height="16" viewBox="0 0 16 16" fill="none" xmlns="http://www.w3.org/2000/svg">
<g clip-path="url(#clip0_918_140783)">
<path d="M5.33203 4.66667C5.33203 5.37391 5.61298 6.05219 6.11308 6.55229C6.61318 7.05238 7.29145 7.33333 7.9987 7.33333C8.70594 7.33333 9.38422 7.05238 9.88432 6.55229C10.3844 6.05219 10.6654 5.37391 10.6654 4.66667C10.6654 3.95942 10.3844 3.28115 9.88432 2.78105C9.38422 2.28095 8.70594 2 7.9987 2C7.29145 2 6.61318 2.28095 6.11308 2.78105C5.61298 3.28115 5.33203 3.95942 5.33203 4.66667Z" stroke="#666A7B"/>
<path d="M4 14V12.6667C4 11.9594 4.28095 11.2811 4.78105 10.781C5.28115 10.281 5.95942 10 6.66667 10H9.33333C10.0406 10 10.7189 10.281 11.219 10.781C11.719 11.2811 12 11.9594 12 12.6667V14" stroke="#666A7B"/>
</g>
<defs>
<clipPath id="clip0_918_140783">
<rect width="16" height="16" fill="white"/>
</clipPath>
</defs>
</svg>
