<svg width="18" height="18" viewBox="0 0 18 18" fill="none" xmlns="http://www.w3.org/2000/svg">
<path fill-rule="evenodd" clip-rule="evenodd" d="M13.6531 4.32148C12.4186 3.08623 10.7769 2.40523 9.02786 2.40448C5.42261 2.40448 2.48936 5.33623 2.48861 8.93998C2.48711 10.0867 2.78786 11.214 3.36086 12.2077L2.43311 15.5947L5.89961 14.6857C6.85886 15.2077 7.93286 15.4815 9.02486 15.4815H9.02786C12.6316 15.4815 15.5649 12.549 15.5664 8.94523C15.5671 7.19923 14.8876 5.55748 13.6531 4.32148Z" stroke="#151B30" stroke-width="1.2" stroke-linecap="round" stroke-linejoin="round"/>
<path d="M9.82129 10.17L10.1258 9.86774C10.4055 9.59024 10.848 9.55499 11.1705 9.78149C11.4825 10.0005 11.7645 10.197 12.027 10.38C12.444 10.6695 12.4943 11.2635 12.135 11.622L11.8658 11.8912" stroke="#151B30" stroke-width="1.2" stroke-linecap="round" stroke-linejoin="round"/>
<path d="M6.10889 6.13423L6.37814 5.86498C6.73664 5.50648 7.33064 5.55673 7.62014 5.97298C7.80239 6.23548 7.99889 6.51748 8.21864 6.82948C8.44514 7.15198 8.41064 7.59448 8.13239 7.87423L7.83014 8.17873" stroke="#151B30" stroke-width="1.2" stroke-linecap="round" stroke-linejoin="round"/>
<path d="M11.8658 11.8913C10.7551 12.9968 8.8883 12.0578 7.41455 10.5833" stroke="#151B30" stroke-width="1.2" stroke-linecap="round" stroke-linejoin="round"/>
<path d="M7.41605 10.5855C5.9423 9.11097 5.0033 7.24497 6.1088 6.13422" stroke="#151B30" stroke-width="1.2" stroke-linecap="round" stroke-linejoin="round"/>
<path d="M7.83008 8.17871C8.06933 8.55596 8.37608 8.92946 8.72258 9.27596L8.72408 9.27746C9.07058 9.62396 9.44408 9.93071 9.82133 10.17" stroke="#151B30" stroke-width="1.2" stroke-linecap="round" stroke-linejoin="round"/>
</svg>
