<svg width="44" height="44" viewBox="0 0 44 44" fill="none" xmlns="http://www.w3.org/2000/svg">
<g clip-path="url(#clip0_38_412059)">
<path d="M16.5 27.5L27.5 16.5" stroke="#0F6CDA" stroke-width="1.5" stroke-linecap="round" stroke-linejoin="round"/>
<path d="M17.4167 18.3333C17.9229 18.3333 18.3333 17.9229 18.3333 17.4167C18.3333 16.9104 17.9229 16.5 17.4167 16.5C16.9104 16.5 16.5 16.9104 16.5 17.4167C16.5 17.9229 16.9104 18.3333 17.4167 18.3333Z" fill="#0F6CDA" stroke="#0F6CDA" stroke-width="1.5" stroke-linecap="round" stroke-linejoin="round"/>
<path d="M26.5834 27.5C27.0897 27.5 27.5001 27.0896 27.5001 26.5834C27.5001 26.0771 27.0897 25.6667 26.5834 25.6667C26.0772 25.6667 25.6667 26.0771 25.6667 26.5834C25.6667 27.0896 26.0772 27.5 26.5834 27.5Z" fill="#0F6CDA" stroke="#0F6CDA" stroke-width="1.5" stroke-linecap="round" stroke-linejoin="round"/>
<path d="M5.5 22C5.5 24.1668 5.92678 26.3124 6.75599 28.3143C7.58519 30.3161 8.80057 32.1351 10.3327 33.6673C11.8649 35.1994 13.6839 36.4148 15.6857 37.244C17.6876 38.0732 19.8332 38.5 22 38.5C24.1668 38.5 26.3124 38.0732 28.3143 37.244C30.3161 36.4148 32.1351 35.1994 33.6673 33.6673C35.1994 32.1351 36.4148 30.3161 37.244 28.3143C38.0732 26.3124 38.5 24.1668 38.5 22C38.5 19.8332 38.0732 17.6876 37.244 15.6857C36.4148 13.6839 35.1994 11.8649 33.6673 10.3327C32.1351 8.80057 30.3161 7.58519 28.3143 6.75599C26.3124 5.92679 24.1668 5.5 22 5.5C19.8332 5.5 17.6876 5.92679 15.6857 6.75599C13.6839 7.58519 11.8649 8.80057 10.3327 10.3327C8.80057 11.8649 7.58519 13.6839 6.75599 15.6857C5.92678 17.6876 5.5 19.8332 5.5 22Z" stroke="#0F6CDA" stroke-width="1.5" stroke-linecap="round" stroke-linejoin="round"/>
</g>
<defs>
<clipPath id="clip0_38_412059">
<rect width="44" height="44" fill="white"/>
</clipPath>
</defs>
</svg>
