<svg width="44" height="44" viewBox="0 0 44 44" fill="none" xmlns="http://www.w3.org/2000/svg">
<g clip-path="url(#clip0_38_412069)">
<path d="M7.33325 14.6666V11C7.33325 10.0275 7.71956 9.09489 8.40719 8.40725C9.09483 7.71962 10.0275 7.33331 10.9999 7.33331H14.6666" stroke="#0F6CDA" stroke-width="1.5" stroke-linecap="round" stroke-linejoin="round"/>
<path d="M7.33325 29.3333V33C7.33325 33.9724 7.71956 34.9051 8.40719 35.5927C9.09483 36.2803 10.0275 36.6666 10.9999 36.6666H14.6666" stroke="#0F6CDA" stroke-width="1.5" stroke-linecap="round" stroke-linejoin="round"/>
<path d="M29.3333 7.33331H32.9999C33.9724 7.33331 34.905 7.71962 35.5926 8.40725C36.2803 9.09489 36.6666 10.0275 36.6666 11V14.6666" stroke="#0F6CDA" stroke-width="1.5" stroke-linecap="round" stroke-linejoin="round"/>
<path d="M29.3333 36.6666H32.9999C33.9724 36.6666 34.905 36.2803 35.5926 35.5927C36.2803 34.9051 36.6666 33.9724 36.6666 33V29.3333" stroke="#0F6CDA" stroke-width="1.5" stroke-linecap="round" stroke-linejoin="round"/>
<path d="M14.6667 22C14.6667 21.5138 14.8599 21.0475 15.2037 20.7037C15.5475 20.3598 16.0139 20.1667 16.5001 20.1667H27.5001C27.9863 20.1667 28.4526 20.3598 28.7964 20.7037C29.1403 21.0475 29.3334 21.5138 29.3334 22V27.5C29.3334 27.9863 29.1403 28.4526 28.7964 28.7964C28.4526 29.1402 27.9863 29.3334 27.5001 29.3334H16.5001C16.0139 29.3334 15.5475 29.1402 15.2037 28.7964C14.8599 28.4526 14.6667 27.9863 14.6667 27.5V22Z" stroke="#0F6CDA" stroke-width="1.5" stroke-linecap="round" stroke-linejoin="round"/>
<path d="M18.3333 20.1666V16.5C18.3333 15.5275 18.7196 14.5949 19.4072 13.9073C20.0948 13.2196 21.0275 12.8333 21.9999 12.8333C22.9724 12.8333 23.905 13.2196 24.5926 13.9073C25.2803 14.5949 25.6666 15.5275 25.6666 16.5V20.1666" stroke="#0F6CDA" stroke-width="1.5" stroke-linecap="round" stroke-linejoin="round"/>
</g>
<defs>
<clipPath id="clip0_38_412069">
<rect width="44" height="44" fill="white"/>
</clipPath>
</defs>
</svg>
