<svg width="44" height="44" viewBox="0 0 44 44" fill="none" xmlns="http://www.w3.org/2000/svg">
<g clip-path="url(#clip0_38_412092)">
<path d="M31.1667 18.3334L27.5 7.33337" stroke="#0F6CDA" stroke-width="1.5" stroke-linecap="round" stroke-linejoin="round"/>
<path d="M12.8333 18.3334L16.4999 7.33337" stroke="#0F6CDA" stroke-width="1.5" stroke-linecap="round" stroke-linejoin="round"/>
<path d="M22.9167 36.6666H13.2807C11.967 36.6666 10.6966 36.1962 9.69956 35.3407C8.7025 34.4853 8.0446 33.3011 7.8449 32.0026L5.54407 18.8906C5.46371 18.3681 5.4973 17.8344 5.64253 17.326C5.78776 16.8177 6.0412 16.3468 6.38547 15.9456C6.72974 15.5444 7.1567 15.2223 7.63708 15.0016C8.11746 14.7808 8.6399 14.6666 9.16857 14.6666H34.8334C35.3621 14.6666 35.8845 14.7808 36.3649 15.0016C36.8453 15.2223 37.2722 15.5444 37.6165 15.9456C37.9608 16.3468 38.2142 16.8177 38.3594 17.326C38.5047 17.8344 38.5383 18.3681 38.4579 18.8906L37.7356 23.012" stroke="#0F6CDA" stroke-width="1.5" stroke-linecap="round" stroke-linejoin="round"/>
<path d="M25.4027 24.299C25.1544 23.6814 24.7428 23.1431 24.2118 22.7417C23.6809 22.3404 23.0507 22.0911 22.3888 22.0206C21.727 21.9501 21.0584 22.0612 20.4549 22.3418C19.8513 22.6224 19.3355 23.062 18.9628 23.6134C18.5901 24.1649 18.3745 24.8074 18.3392 25.472C18.3038 26.1367 18.4501 26.7984 18.7622 27.3863C19.0744 27.9741 19.5406 28.4659 20.111 28.8089C20.6814 29.1519 21.3344 29.3332 22 29.3333" stroke="#0F6CDA" stroke-width="1.5" stroke-linecap="round" stroke-linejoin="round"/>
<path d="M29.3333 38.5L38.4999 29.3334" stroke="#0F6CDA" stroke-width="1.5" stroke-linecap="round" stroke-linejoin="round"/>
<path d="M38.5 38.5V38.5183" stroke="#0F6CDA" stroke-width="1.5" stroke-linecap="round" stroke-linejoin="round"/>
<path d="M29.3333 29.3334V29.3517" stroke="#0F6CDA" stroke-width="1.5" stroke-linecap="round" stroke-linejoin="round"/>
</g>
<defs>
<clipPath id="clip0_38_412092">
<rect width="44" height="44" fill="white"/>
</clipPath>
</defs>
</svg>
