<svg width="45" height="46" viewBox="0 0 45 46" fill="none" xmlns="http://www.w3.org/2000/svg">
<g clip-path="url(#clip0_22_400193)">
<path d="M39.375 26.7329L33.75 21.1079H20.625C20.1277 21.1079 19.6508 20.9104 19.2992 20.5587C18.9475 20.2071 18.75 19.7302 18.75 19.2329V7.98291C18.75 7.48563 18.9475 7.00872 19.2992 6.65708C19.6508 6.30545 20.1277 6.10791 20.625 6.10791H37.5C37.9973 6.10791 38.4742 6.30545 38.8258 6.65708C39.1775 7.00872 39.375 7.48563 39.375 7.98291V26.7329Z" stroke="#0F6CDA" stroke-width="1.5" stroke-linecap="round" stroke-linejoin="round"/>
<path d="M26.25 28.6079V32.3579C26.25 32.8552 26.0525 33.3321 25.7008 33.6837C25.3492 34.0354 24.8723 34.2329 24.375 34.2329H11.25L5.625 39.8579V21.1079C5.625 20.6106 5.82254 20.1337 6.17417 19.7821C6.52581 19.4305 7.00272 19.2329 7.5 19.2329H11.25" stroke="#0F6CDA" stroke-width="1.5" stroke-linecap="round" stroke-linejoin="round"/>
</g>
<defs>
<clipPath id="clip0_22_400193">
<rect width="45" height="45" fill="white" transform="translate(0 0.48291)"/>
</clipPath>
</defs>
</svg>
