<svg width="45" height="46" viewBox="0 0 45 46" fill="none" xmlns="http://www.w3.org/2000/svg">
<g clip-path="url(#clip0_22_400185)">
<path d="M33.5456 19.4804C33.9497 19.2628 34.2776 18.9267 34.4853 18.5174C34.6929 18.1081 34.7704 17.645 34.7074 17.1904C34.6443 16.7357 34.4437 16.3112 34.1325 15.9739C33.8213 15.6365 33.4143 15.4024 32.9663 15.3029L7.5 7.98291L14.82 33.4135C14.9197 33.8615 15.154 34.2683 15.4915 34.5793C15.829 34.8903 16.2535 35.0906 16.7081 35.1535C17.1627 35.2163 17.6257 35.1386 18.0349 34.9309C18.4441 34.7231 18.78 34.3952 18.9975 33.991" stroke="#0F6CDA" stroke-width="1.5" stroke-linecap="round" stroke-linejoin="round"/>
<path d="M33.375 39.5148L29.3025 41.6485C29.1816 41.7115 29.0456 41.7395 28.9098 41.7296C28.7739 41.7197 28.6434 41.6723 28.5329 41.5925C28.4225 41.5128 28.3363 41.4039 28.2842 41.2781C28.232 41.1522 28.2158 41.0143 28.2375 40.8798L29.0156 36.3592L25.7212 33.1585C25.6229 33.0635 25.5533 32.9427 25.5203 32.81C25.4873 32.6772 25.4923 32.5379 25.5348 32.4079C25.5772 32.2779 25.6553 32.1624 25.7602 32.0747C25.8651 31.9869 25.9926 31.9304 26.1281 31.9117L30.6806 31.2517L32.7168 27.1398C32.7777 27.0173 32.8716 26.9143 32.9879 26.8423C33.1041 26.7702 33.2382 26.7321 33.375 26.7321C33.5117 26.7321 33.6458 26.7702 33.7621 26.8423C33.8783 26.9143 33.9722 27.0173 34.0331 27.1398L36.0693 31.2517L40.6218 31.9117C40.7569 31.9311 40.8839 31.9879 40.9883 32.0758C41.0928 32.1636 41.1706 32.2789 41.2129 32.4086C41.2552 32.5384 41.2604 32.6774 41.2279 32.8099C41.1953 32.9424 41.1263 33.0632 41.0287 33.1585L37.7343 36.3592L38.5106 40.8779C38.5339 41.0127 38.5189 41.1513 38.4674 41.2779C38.4159 41.4046 38.3299 41.5143 38.2192 41.5946C38.1085 41.6748 37.9775 41.7224 37.841 41.732C37.7046 41.7415 37.5683 41.7126 37.4475 41.6485L33.375 39.5148Z" stroke="#0F6CDA" stroke-width="1.5" stroke-linecap="round" stroke-linejoin="round"/>
</g>
<defs>
<clipPath id="clip0_22_400185">
<rect width="45" height="45" fill="white" transform="translate(0 0.48291)"/>
</clipPath>
</defs>
</svg>
