<svg width="44" height="44" viewBox="0 0 44 44" fill="none" xmlns="http://www.w3.org/2000/svg">
<g clip-path="url(#clip0_38_412081)">
<path d="M14.6667 16.5H29.3334" stroke="#0F6CDA" stroke-width="1.5" stroke-linecap="round" stroke-linejoin="round"/>
<path d="M14.6667 23.8333H25.6667" stroke="#0F6CDA" stroke-width="1.5" stroke-linecap="round" stroke-linejoin="round"/>
<path d="M22.0183 34.089L14.6667 38.5V33H11C9.54131 33 8.14236 32.4205 7.11091 31.3891C6.07946 30.3576 5.5 28.9587 5.5 27.5V12.8333C5.5 11.3746 6.07946 9.97568 7.11091 8.94423C8.14236 7.91278 9.54131 7.33331 11 7.33331H33C34.4587 7.33331 35.8576 7.91278 36.8891 8.94423C37.9205 9.97568 38.5 11.3746 38.5 12.8333V22.9166" stroke="#0F6CDA" stroke-width="1.5" stroke-linecap="round" stroke-linejoin="round"/>
<path d="M29.3333 34.8333H40.3333" stroke="#0F6CDA" stroke-width="1.5" stroke-linecap="round" stroke-linejoin="round"/>
<path d="M34.8333 29.3333V40.3333" stroke="#0F6CDA" stroke-width="1.5" stroke-linecap="round" stroke-linejoin="round"/>
</g>
<defs>
<clipPath id="clip0_38_412081">
<rect width="44" height="44" fill="white"/>
</clipPath>
</defs>
</svg>
