<svg width="18" height="18" viewBox="0 0 18 18" fill="none" xmlns="http://www.w3.org/2000/svg">
<path fill-rule="evenodd" clip-rule="evenodd" d="M16.1873 4.77978C16.0155 4.02678 15.507 3.43278 14.8605 3.22878C13.6912 2.86353 9 2.86353 9 2.86353C9 2.86353 4.311 2.86353 3.1395 3.22878C2.49525 3.42978 1.98675 4.02378 1.81275 4.77978C1.5 6.14628 1.5 9.00003 1.5 9.00003C1.5 9.00003 1.5 11.8538 1.81275 13.2203C1.9845 13.9733 2.493 14.5673 3.1395 14.7713C4.311 15.1365 9 15.1365 9 15.1365C9 15.1365 13.6912 15.1365 14.8605 14.7713C15.5047 14.5703 16.0133 13.9763 16.1873 13.2203C16.5 11.8538 16.5 9.00003 16.5 9.00003C16.5 9.00003 16.5 6.14628 16.1873 4.77978Z" stroke="#151B30" stroke-width="1.2" stroke-linecap="round" stroke-linejoin="round"/>
<path fill-rule="evenodd" clip-rule="evenodd" d="M7.50146 11.25L11.3985 9L7.50146 6.75V11.25Z" stroke="#151B30" stroke-width="1.2" stroke-linecap="round" stroke-linejoin="round"/>
</svg>
