<svg width="24" height="24" viewBox="0 0 24 24" fill="none" xmlns="http://www.w3.org/2000/svg">
<path fill-rule="evenodd" clip-rule="evenodd" d="M21.583 6.37336C21.354 5.36936 20.676 4.57736 19.814 4.30536C18.255 3.81836 12 3.81836 12 3.81836C12 3.81836 5.748 3.81836 4.186 4.30536C3.327 4.57336 2.649 5.36536 2.417 6.37336C2 8.19536 2 12.0004 2 12.0004C2 12.0004 2 15.8054 2.417 17.6274C2.646 18.6314 3.324 19.4234 4.186 19.6954C5.748 20.1824 12 20.1824 12 20.1824C12 20.1824 18.255 20.1824 19.814 19.6954C20.673 19.4274 21.351 18.6354 21.583 17.6274C22 15.8054 22 12.0004 22 12.0004C22 12.0004 22 8.19536 21.583 6.37336Z" stroke="white" stroke-width="1.5" stroke-linecap="round" stroke-linejoin="round"/>
<path fill-rule="evenodd" clip-rule="evenodd" d="M10.002 15L15.198 12L10.002 9V15Z" stroke="white" stroke-width="1.5" stroke-linecap="round" stroke-linejoin="round"/>
</svg>
